<?xml version="1.0" encoding="UTF-8" standalone="no"?>
<!-- Created with Inkscape (http://www.inkscape.org/) -->

<svg
   width="255.99998"
   height="180.00002"
   viewBox="0 0 255.99998 180.00002"
   version="1.1"
   id="svg1"
   xml:space="preserve"
   xmlns="http://www.w3.org/2000/svg"
   xmlns:svg="http://www.w3.org/2000/svg"
   xmlns:rdf="http://www.w3.org/1999/02/22-rdf-syntax-ns#"
   xmlns:cc="http://creativecommons.org/ns#"
   xmlns:dc="http://purl.org/dc/elements/1.1/"><title
     id="title15">PlasmaPuffs</title><defs
     id="defs1" /><metadata
     id="metadata15"><rdf:RDF><cc:Work
         rdf:about=""><dc:title>PlasmaPuffs</dc:title></cc:Work></rdf:RDF></metadata><g
     id="g1"
     transform="matrix(0.99539671,0.1705011,-0.16073943,1.055847,20.144528,-27.688053)"
     style="stroke-width:0.96296"><path
       style="fill:#e6e6e6;stroke:#333333;stroke-width:6.63659;stroke-linecap:round;stroke-linejoin:bevel;paint-order:markers fill stroke"
       d="m 4.5796045,134.26925 c 6.1232635,9.30778 62.7567995,11.7916 65.6573385,10.70903 C 92.353511,99.975705 6.2338759,126.46288 4.5796045,134.26925 Z"
       id="path5" /><path
       style="opacity:1;fill:#e6e6e6;stroke:#333333;stroke-width:6.63659;stroke-linecap:round;stroke-linejoin:bevel;stroke-dasharray:none;stroke-opacity:1;paint-order:markers fill stroke"
       d="m 210.92468,123.90625 c 12.43893,-1.27678 22.45759,-3.27116 34.73011,-5.67321 8.16656,-2.05082 2.28219,-13.79008 3.0601,-19.786833 -1.7698,-54.82204 -47.71826,-78.046901 -100.55547,-82.086505"
       id="path3" /><path
       style="opacity:1;fill:#e6e6e6;stroke:#333333;stroke-width:6.63659;stroke-linecap:round;stroke-linejoin:bevel;stroke-dasharray:none;stroke-opacity:1;paint-order:markers fill stroke"
       d="M 62.301491,93.764299 C 63.62313,79.47435 76.018472,57.377603 83.059386,47.284217 115.67136,-9.9133491 210.53071,16.625336 207.13992,80.550426 c -0.002,14.308027 -1.70225,28.572664 -2.8172,42.864774"
       id="path2" /><path
       style="opacity:1;fill:#e6e6e6;stroke:#333333;stroke-width:6.63659;stroke-linecap:round;stroke-linejoin:bevel;stroke-opacity:1;paint-order:markers fill stroke"
       d="M 9.4524761,129.44317 C 10.182165,128.86525 48.577688,101.23882 53.243239,99.244046 92.872084,74.31993 145.49555,109.29418 187.7217,120.54036 c 11.84065,2.98753 26.88366,3.09954 39.11223,2.27382 -3.82601,5.99773 -11.74704,13.18857 -17.52721,17.87626 -70.32717,77.2122 -172.526116,-35.67108 -201.219667,-10.20223 -1.0479395,0.96672 -2.0421218,1.97766 -3.1064687,2.93073"
       id="path1" /><path
       style="display:none;fill:none;stroke:#333333;stroke-width:8.38405;stroke-linecap:round;stroke-linejoin:bevel;stroke-opacity:1;paint-order:markers fill stroke"
       d="m 122.3435,94.496172 c 1.72324,-26.306026 7.55432,-61.713585 33.71104,-74.70678"
       id="path4" /><path
       style="fill:#e6e6e6;stroke:#333333;stroke-width:6.63659;stroke-linecap:round;stroke-linejoin:bevel;paint-order:markers fill stroke"
       d="m 144.59518,12.544451 c 0.55191,-4.0919998 4.37331,-7.4017735 8.26095,-7.5893597 4.51466,-0.2671214 14.74509,2.3147404 17.75275,3.2443382 6.10163,1.2867246 6.48347,6.4279305 6.66939,11.9175595"
       id="path6" /></g></svg>
