<?xml version="1.0" encoding="UTF-8" standalone="no"?>
<!-- Created with Inkscape (http://www.inkscape.org/) -->

<svg
   width="256"
   height="256"
   viewBox="0 0 256 256"
   version="1.1"
   id="svg1"
   xml:space="preserve"
   xmlns="http://www.w3.org/2000/svg"
   xmlns:svg="http://www.w3.org/2000/svg"
   xmlns:rdf="http://www.w3.org/1999/02/22-rdf-syntax-ns#"
   xmlns:cc="http://creativecommons.org/ns#"
   xmlns:dc="http://purl.org/dc/elements/1.1/"><title
     id="title15">PlasmaPuffs</title><defs
     id="defs1" /><metadata
     id="metadata15"><rdf:RDF><cc:Work
         rdf:about=""><dc:title>PlasmaPuffs</dc:title></cc:Work></rdf:RDF></metadata><g
     id="layer1"
     style="opacity:1;fill:#ffffff;fill-opacity:0.5;stroke:#ffffff"><path
       id="path1-8-5"
       style="fill:#ffffff;fill-opacity:0.1;stroke:#ffffff;stroke-width:8;stroke-dasharray:none;stroke-opacity:0.2;paint-order:markers fill stroke"
       d="m 183.13194,146.63914 v 13.08008 c 0,0.27941 -0.2245,0.50391 -0.50391,0.50391 h -0.89843 a 55.928017,20.962004 0 0 1 -55.14258,17.46094 55.928017,20.962004 0 0 1 -55.142581,-17.46094 h -0.47852 c -0.27941,0 -0.5039,-0.2245 -0.5039,-0.50391 v -12.79297 a 80.424782,31.863066 0 0 0 -23.72071,22.59571 80.424782,31.863066 0 0 0 80.425791,31.86328 80.424782,31.863066 0 0 0 80.42382,-31.86328 80.424782,31.863066 0 0 0 -24.45898,-22.88282 z" /><path
       id="rect1"
       style="fill:#ffffff;fill-opacity:0.1;stroke:#ffffff;stroke-width:8;stroke-dasharray:none;stroke-opacity:0.2;paint-order:markers fill stroke"
       d="m 70.636719,72.687041 c -0.03555,0.05917 -0.05469,0.127493 -0.05469,0.198849 v 88.80687 c 0,0.23905 0.224504,0.43112 0.503907,0.43112 h 0.478515 a 55.928017,17.934065 0 0 0 55.142579,14.93873 55.928017,17.934065 0 0 0 55.14258,-14.93873 h 0.89844 c 0.27941,0 0.5039,-0.19207 0.5039,-0.43112 V 74.612031 A 56.662918,17.934065 0 0 1 127.24414,89.82647 56.662918,17.934065 0 0 1 70.636719,72.687041 Z" /><ellipse
       style="opacity:1;fill:#ffffff;fill-opacity:0.1;stroke:#ffffff;stroke-width:8;stroke-dasharray:none;stroke-opacity:0.2;paint-order:markers fill stroke"
       id="path1-8"
       cx="126.56694"
       cy="72.615517"
       rx="56.662918"
       ry="17.934065" /></g><path
     id="path2"
     style="opacity:1;fill:none;stroke:#ffffff;stroke-width:8;stroke-dasharray:none;stroke-opacity:0.5;paint-order:markers fill stroke"
     d="m 126.01954,24.052739 c -1.9899,0.03177 -3.94555,0.128231 -5.86523,0.273438 -1.37372,0.104899 -2.97953,0.260613 -4.43834,0.435386 -1.66703,0.198513 -3.51773,0.47255 -5.15932,0.746254 -1.38809,0.23801 -2.68522,0.490689 -4.10742,0.785157 -0.53985,0.124114 -1.2561,0.267978 -1.81508,0.402521 -21.85577,4.991281 -41.961761,17.301809 -56.313899,34.527873 -8.737007,10.42631 -15.413355,22.571925 -19.484308,35.553981 -0.561842,1.769656 -1.125849,3.755131 -1.602454,5.632741 -0.808797,3.1572 -1.467236,6.39555 -1.950487,9.54359 -1.326033,8.47977 -1.582529,17.12166 -0.796669,25.66742 0.0738,0.64486 0.155098,1.60265 0.252891,2.37145 0.15277,1.32429 0.313254,2.54069 0.523757,3.90631 0.608454,3.93925 1.415718,7.7027 2.471631,11.56623 1.436741,5.24945 3.286941,10.38477 5.521252,15.34742 0.582324,1.27829 1.27686,2.7565 1.954158,4.08832 2.236822,4.44261 4.838339,8.75859 7.657922,12.77519 5.493309,7.85531 12.105275,14.91772 19.530499,20.97633 0.62745,0.49555 1.480659,1.18975 2.209639,1.74175 13.793168,10.66301 30.331918,17.71073 47.557948,20.36372 0.74745,0.11223 1.8007,0.26634 2.66692,0.3728 2.19269,0.28133 4.40584,0.48588 6.53432,0.62051 1.69221,0.10924 3.259,0.16624 4.98976,0.19977 4.7418,0.0756 9.64406,-0.19039 14.25431,-0.74972 6.12666,-0.74365 12.18334,-2.04734 18.08008,-3.86719 0.88729,-0.28352 2.04104,-0.65103 3.0221,-0.98765 11.71252,-4.01805 22.70075,-10.13374 32.26891,-17.99477 0.53799,-0.46039 1.33274,-1.10535 1.95563,-1.65276 3.36468,-2.88428 6.52416,-6.00425 9.48773,-9.29841 0.48349,-0.55843 1.18613,-1.33797 1.73654,-1.99713 4.32547,-5.06445 8.24448,-10.74055 11.45096,-16.4267 8.90707,-15.79613 13.56458,-33.95253 13.34364,-52.0867 -0.0111,-1.62273 -0.0661,-3.19513 -0.15791,-4.74439 -0.0799,-1.49209 -0.22935,-3.22514 -0.38299,-4.8232 -0.0522,-0.48372 -0.15025,-1.32535 -0.22,-1.94619 -0.32792,-2.6899 -0.76631,-5.36545 -1.29758,-8.02256 -0.142,-0.62896 -0.32648,-1.57692 -0.50524,-2.32699 -0.29461,-1.29631 -0.61989,-2.62809 -0.94279,-3.80977 -3.27652,-12.329363 -8.85385,-24.036552 -16.35471,-34.355437 -0.54297,-0.732047 -1.25218,-1.691602 -1.8753,-2.498257 -4.9987,-6.454033 -10.76567,-12.309392 -17.1247,-17.427524 -0.75117,-0.593079 -1.72016,-1.353487 -2.5664,-1.994141 -15.94906,-12.047863 -35.444,-19.301011 -55.3822,-20.661501 -0.74412,-0.06128 -1.63009,-0.09159 -2.34437,-0.137327 -2.25965,-0.09684 -4.52177,-0.127585 -6.7832,-0.08984 z" /><path
     style="fill:none;stroke:#ffffff;stroke-width:8;stroke-dasharray:none;stroke-opacity:0.5;paint-order:markers fill stroke"
     d="M 54.000005,54.000005 202.00001,202.00001"
     id="path3" /><rect
     style="fill:#ffffff;fill-opacity:0;stroke:#ffffff;stroke-width:8;stroke-dasharray:none;stroke-opacity:0;paint-order:markers fill stroke"
     id="rect3"
     width="2.00001"
     height="2.00001"
     x="4"
     y="4"
     rx="0.50433707"
     ry="0.50433707" /><rect
     style="fill:#ffffff;fill-opacity:0;stroke:#ffffff;stroke-width:8;stroke-dasharray:none;stroke-opacity:0;paint-order:markers fill stroke"
     id="rect3-2"
     width="2.00001"
     height="2.00001"
     x="250"
     y="250"
     rx="0.50433707"
     ry="0.50433707" /></svg>
