<?xml version="1.0" encoding="UTF-8" standalone="no"?>
<!-- Created with Inkscape (http://www.inkscape.org/) -->

<svg
   width="255.99994"
   height="256"
   viewBox="0 0 255.99994 256"
   version="1.1"
   id="svg1"
   xml:space="preserve"
   xmlns="http://www.w3.org/2000/svg"
   xmlns:svg="http://www.w3.org/2000/svg"
   xmlns:rdf="http://www.w3.org/1999/02/22-rdf-syntax-ns#"
   xmlns:cc="http://creativecommons.org/ns#"
   xmlns:dc="http://purl.org/dc/elements/1.1/"><title
     id="title15">PlasmaPuffs</title><defs
     id="defs1" /><metadata
     id="metadata15"><rdf:RDF><cc:Work
         rdf:about=""><dc:title>PlasmaPuffs</dc:title></cc:Work></rdf:RDF></metadata><g
     id="g1"
     transform="matrix(1,0,0,1.000014,37.094979,144.37498)"
     style="stroke-width:0.999993"><path
       style="fill:#008033;stroke:#1a1a1a;stroke-width:6.89176;stroke-linecap:round;stroke-linejoin:bevel;paint-order:markers fill stroke"
       d="m -33.484485,65.776609 c 5.730426,9.862914 62.787138,15.20993 65.76805,14.241136 C 56.796022,34.884399 -31.43556,57.839833 -33.484485,65.776609 Z"
       id="path5" /><path
       id="rect9"
       style="fill:#ffcc00;stroke:#1a1a1a;stroke-width:7.33695;stroke-linecap:round;stroke-linejoin:bevel;paint-order:markers fill stroke"
       d="m 127.01236,-103.42693 14.4089,-10.10383 -8.12847,89.690237 -14.05523,-2.059713 z" /><path
       style="fill:#ff0000;stroke:#1a1a1a;stroke-width:6.89176;stroke-linecap:round;stroke-linejoin:bevel;stroke-dasharray:none;stroke-opacity:1;paint-order:markers fill stroke"
       d="m 175.34437,65.318331 c 12.62029,-0.697416 22.8319,-2.251404 35.33879,-4.112875 8.34447,-1.703389 2.97321,-14.052043 4.04955,-20.173301 0.87323,-56.398717 -44.38946,-82.522764 -97.53791,-89.280424"
       id="path3" /><path
       style="fill:#00aa44;stroke:#333333;stroke-width:6.89176;stroke-linecap:round;stroke-linejoin:bevel;stroke-opacity:1;paint-order:markers fill stroke"
       d="M -28.532139,61.424987 C -27.767404,60.867388 12.337183,34.38585 17.144312,32.567205 58.362942,8.9222721 109.79462,47.444404 151.88047,61.080599 c 11.80937,3.653205 26.99136,4.510858 39.37739,4.26637 -4.15375,5.971795 -12.49973,12.96696 -18.56285,17.496659 C 97.946285,158.68168 0.2434091,37.686729 -29.961377,62.431012 c -1.104906,0.941251 -2.157684,1.930576 -3.278493,2.856996"
       id="path1" /><path
       style="fill:#3296fa;fill-opacity:1;stroke:none;stroke-width:7.16595;stroke-linecap:round;stroke-linejoin:bevel;paint-order:markers fill stroke"
       d="M 121.04861,-45.981337 C 64.145258,-70.471658 16.592041,29.064767 31.565215,25.763385 60.27598,15.527253 85.484065,46.352912 86.137134,18.135248"
       id="path8" /><path
       style="fill:#ffcc00;fill-opacity:1;stroke:none;stroke-width:7.16595;stroke-linecap:round;stroke-linejoin:bevel;paint-order:markers fill stroke"
       d="m 124.8775,-45.979625 c -35.142171,37.1892117 -36.301314,75.044423 -34.668575,79.7216 3.883459,3.626598 79.575745,41.3222 78.277045,23.740327 C 181.61578,5.2273755 167.1491,-24.824549 124.8775,-45.979625 Z"
       id="path7" /><path
       style="fill:none;stroke:#1a1a1a;stroke-width:6.89176;stroke-linecap:round;stroke-linejoin:bevel;stroke-dasharray:none;stroke-opacity:1;paint-order:markers fill stroke"
       d="M 26.756879,27.020738 C 28.784567,12.407827 42.371061,-9.6773122 49.969309,-19.697316 85.669641,-76.838837 180.15198,-44.896453 173.62693,20.59786 c -0.69625,14.696617 -3.10496,29.264841 -4.92408,43.890175"
       id="path2" /><path
       style="display:inline;fill:none;stroke:#1a1a1a;stroke-width:8.70641;stroke-linecap:round;stroke-linejoin:bevel;stroke-opacity:1;paint-order:markers fill stroke"
       d="M 87.339792,30.73647 C 90.355967,3.8008822 97.961033,-32.280721 124.9993,-44.335663"
       id="path4" /><path
       style="display:inline;fill:none;stroke:#1a1a1a;stroke-width:6.89176;stroke-linecap:round;stroke-linejoin:bevel;stroke-opacity:1;paint-order:markers fill stroke"
       d="m -28.941368,61.174 c 0.764736,-0.557599 40.869321,-27.039137 45.676451,-28.857782 41.218621,-23.6449328 92.650307,14.8772 134.736157,28.513394 11.80937,3.653206 26.99136,4.510858 39.37739,4.266371 -4.15375,5.971794 -12.49973,12.96696 -18.56284,17.496658 C 97.537056,158.4307 -0.16582007,37.435742 -30.370606,62.180025 c -1.104905,0.941251 -2.157684,1.930577 -3.278493,2.856996"
       id="path1-8" /><path
       style="fill:#ffcc00;fill-opacity:1;stroke:#1a1a1a;stroke-width:7.16595;stroke-linecap:round;stroke-linejoin:bevel;stroke-opacity:1;paint-order:markers fill stroke"
       d="m 72.632634,-102.53119 c 17.114233,17.267215 31.079226,18.010811 62.317576,16.877121 C 42.144871,-182.6175 48.196584,-127.25933 72.632634,-102.53119 Z"
       id="path9" /><path
       style="fill:#ffcc00;fill-opacity:1;stroke:#1a1a1a;stroke-width:7.38126;stroke-linecap:round;stroke-linejoin:bevel;stroke-opacity:1;paint-order:markers fill stroke"
       d="m 210.01763,-60.166054 c -9.93221,7.488354 -29.90294,-1.854398 -77.06248,-25.991895 50.89984,-44.461151 91.17835,15.214547 77.06248,25.991895 z"
       id="path9-5" /></g></svg>
