<?xml version="1.0" encoding="UTF-8" standalone="no"?>
<!-- Created with Inkscape (http://www.inkscape.org/) -->

<svg
   width="256"
   height="192"
   viewBox="0 0 256 192"
   version="1.1"
   id="svg1"
   xml:space="preserve"
   xmlns="http://www.w3.org/2000/svg"
   xmlns:svg="http://www.w3.org/2000/svg"
   xmlns:rdf="http://www.w3.org/1999/02/22-rdf-syntax-ns#"
   xmlns:cc="http://creativecommons.org/ns#"
   xmlns:dc="http://purl.org/dc/elements/1.1/"><title
     id="title15">PlasmaPuffs</title><defs
     id="defs1" /><metadata
     id="metadata15"><rdf:RDF><cc:Work
         rdf:about=""><dc:title>PlasmaPuffs</dc:title></cc:Work></rdf:RDF></metadata><g
     id="layer1"
     transform="matrix(1.2720583,0,0,1.2580978,-40.70741,-68.11151)"
     style="stroke-width:0.790477"><ellipse
       style="display:inline;fill:#4d4d4d;fill-opacity:1;stroke:#1a1a1a;stroke-width:6.32382;stroke-linecap:round;stroke-linejoin:bevel;stroke-dasharray:none;stroke-opacity:1;paint-order:markers fill stroke"
       id="path1"
       cx="132.62553"
       cy="179.80656"
       rx="97.46241"
       ry="23.781353" /><path
       id="path2"
       style="display:inline;fill:#4d4d4d;fill-opacity:1;stroke:#1a1a1a;stroke-width:6.32382;stroke-linecap:round;stroke-linejoin:bevel;stroke-dasharray:none;stroke-opacity:1;paint-order:markers fill stroke"
       d="M 130.9286,57.300396 A 60.042296,19.817795 0 0 0 71.122084,75.359504 h -0.110401 v 0.47906 a 60.042296,19.817795 0 0 0 -0.126425,1.280642 60.042296,19.817795 0 0 0 0.126425,1.28064 v 86.504544 a 60.042296,19.817795 0 0 0 -0.0035,0.21689 60.042296,19.817795 0 0 0 0.0035,0.2169 v 1.14107 h 0.13711 a 60.042296,19.817795 0 0 0 59.900897,18.46083 60.042296,19.817795 0 0 0 59.77269,-18.46083 h 0.0943 v -0.47718 a 60.042296,19.817795 0 0 0 0.17451,-0.88079 60.042296,19.817795 0 0 0 -0.17451,-1.51074 V 77.950962 a 60.042296,19.817795 0 0 0 0.0535,-0.831756 60.042296,19.817795 0 0 0 -0.0535,-0.831757 v -0.927945 h -0.18341 A 60.042296,19.817795 0 0 0 130.9286,57.300396 Z" /><path
       id="path3"
       style="display:inline;fill:#cccccc;fill-opacity:1;stroke:#1a1a1a;stroke-width:6.32382;stroke-linecap:round;stroke-linejoin:bevel;stroke-dasharray:none;stroke-opacity:1;paint-order:markers fill stroke"
       d="m 71.973882,126.55051 a 71.770501,23.313443 0 0 0 -6.732619,3.98587 v 18.33192 a 71.770501,23.313443 0 0 0 65.987147,14.1483 71.770501,23.313443 0 0 0 63.52808,-12.4657 v -21.69708 a 71.770501,23.313443 0 0 0 -3.43665,-1.89863 71.770501,23.313443 0 0 1 -59.25453,10.15939 71.770501,23.313443 0 0 1 -60.091428,-10.56407 z" /><ellipse
       style="fill:#666666;fill-opacity:1;stroke:none;stroke-width:6.32382;stroke-linecap:round;stroke-linejoin:bevel;stroke-dasharray:none;stroke-opacity:1;paint-order:markers fill stroke"
       id="path4"
       cx="131.48535"
       cy="74.604362"
       rx="57.093086"
       ry="15.382112" /></g></svg>
