<?xml version="1.0" encoding="UTF-8" standalone="no"?>
<!-- Created with Inkscape (http://www.inkscape.org/) -->

<svg
   width="256"
   height="256"
   viewBox="0 0 256 256"
   version="1.1"
   id="svg1"
   xml:space="preserve"
   xmlns="http://www.w3.org/2000/svg"
   xmlns:svg="http://www.w3.org/2000/svg"
   xmlns:rdf="http://www.w3.org/1999/02/22-rdf-syntax-ns#"
   xmlns:cc="http://creativecommons.org/ns#"
   xmlns:dc="http://purl.org/dc/elements/1.1/"><title
     id="title15">PlasmaPuffs</title><defs
     id="defs1" /><metadata
     id="metadata15"><rdf:RDF><cc:Work
         rdf:about=""><dc:title>PlasmaPuffs</dc:title></cc:Work></rdf:RDF></metadata><rect
     style="fill:#ffffff;fill-opacity:0;stroke:#ffffff;stroke-width:8;stroke-dasharray:none;stroke-opacity:0;paint-order:markers fill stroke"
     id="rect3"
     width="2.00001"
     height="2.00001"
     x="4"
     y="4"
     rx="0.50433707"
     ry="0.50433707" /><rect
     style="fill:#ffffff;fill-opacity:0;stroke:#ffffff;stroke-width:8;stroke-dasharray:none;stroke-opacity:0;paint-order:markers fill stroke"
     id="rect3-2"
     width="2.00001"
     height="2.00001"
     x="250"
     y="250"
     rx="0.50433707"
     ry="0.50433707" /><rect
     style="fill:#ffffff;fill-opacity:0.5;stroke-width:8;paint-order:markers fill stroke"
     id="rect1"
     width="176.51096"
     height="28.179382"
     x="39.744526"
     y="194.78534"
     rx="15.999999"
     ry="16.000002" /><path
     style="fill:#ffffff;fill-opacity:0.5;stroke-width:8.89127;paint-order:markers fill stroke"
     d="m 121.37251,26.242154 -74.382738,67.82661 a 2.4509161,2.4509161 69.886989 0 0 1.560127,4.260249 l 41.45193,1.544894 a 4.0624171,4.0624171 46.147159 0 1 3.911101,4.070933 l -0.154159,55.23196 a 23.827178,23.827178 44.89358 0 0 23.982099,23.89318 l 18.75614,-0.12203 a 24.574836,24.574836 134.45404 0 0 24.41302,-24.88276 l -0.71479,-56.94552 a 2.8595598,2.8595598 134.00391 0 1 2.7958,-2.894746 l 39.84488,-0.885442 a 2.1015901,2.1015901 111.30292 0 0 1.41,-3.615911 L 134.248,26.412776 a 9.4192854,9.4192854 0.75922192 0 0 -12.87549,-0.170622 z"
     id="path1"
     transform="matrix(0.91932788,0,0,0.88060571,10.326037,11.619358)" /></svg>
