<?xml version="1.0" encoding="UTF-8" standalone="no"?>
<!-- Created with Inkscape (http://www.inkscape.org/) -->

<svg
   width="256"
   height="180"
   viewBox="0 0 256 180"
   version="1.1"
   id="svg1"
   xml:space="preserve"
   xmlns="http://www.w3.org/2000/svg"
   xmlns:svg="http://www.w3.org/2000/svg"
   xmlns:rdf="http://www.w3.org/1999/02/22-rdf-syntax-ns#"
   xmlns:cc="http://creativecommons.org/ns#"
   xmlns:dc="http://purl.org/dc/elements/1.1/"><title
     id="title1">PlasmaPuffs Halloween 2025</title><defs
     id="defs1" /><g
     id="layer1-8"
     style="display:inline;opacity:1;stroke-width:1.26581;stroke-dasharray:none"
     transform="matrix(5.9242482,0,0,6.742335,-71.139204,-9.2886514)"><path
       style="fill:#4b0064;fill-opacity:1;stroke:#190019;stroke-width:1.26581;stroke-linecap:round;stroke-dasharray:none;stroke-opacity:1"
       d="m 20.309434,21.97874 c -20.97715561,4.493679 6.836904,5.60366 14.783029,5.448045 20.283405,-0.397226 26.635234,-6.826629 9.937254,-5.394021"
       id="path1" /><path
       style="fill:#4b0064;fill-opacity:1;stroke:#190019;stroke-width:1.26581;stroke-linecap:round;stroke-dasharray:none;stroke-opacity:1"
       d="m 20.347473,22.04387 c 1.67057,-8.916942 5.543771,-28.8290121 29.587056,-15.6548411 0.0014,6.85e-4 -0.770784,-0.008 -1.624237,0.07735 -7.619461,0.761946 -6.242946,6.1853001 -3.421125,15.5946531"
       id="path2" /><path
       style="fill:#190019;fill-opacity:1;stroke:#190019;stroke-width:1.26581;stroke-linecap:round;stroke-dasharray:none;stroke-opacity:1"
       d="m 20.692114,21.997772 c 4.288316,0.261478 31.178256,3.423544 23.810536,-2.974564 -0.25691,-0.2231 -3.211357,0.01294 -7.105263,0.135631 -4.74912,0.149636 -10.895683,0.130662 -15.250208,-1.095538 -1.833863,-0.516401 -1.826137,2.741458 -1.455065,3.934471 z"
       id="path4" /><path
       style="fill:none;fill-opacity:1;stroke:#fac800;stroke-width:38.2735;stroke-linecap:round;stroke-dasharray:none;stroke-opacity:1"
       d="m 1004.9845,733.60228 c 18.4861,-0.70578 159.5785,7.74199 169.3672,-12.55616 8.2002,-17.00412 8.448,-127.27101 -15.154,-130.50143 -38.2103,-5.22985 -122.7048,-11.64559 -160.18533,4.10923 -20.58462,8.65269 -19.89179,139.93587 5.97213,138.94836 z"
       id="path5"
       transform="matrix(0.03307292,0,0,0.03307292,0.66602139,-0.68433208)" /><path
       style="fill:none;fill-opacity:1;stroke:#fac800;stroke-width:1.26581;stroke-linecap:round;stroke-dasharray:none;stroke-opacity:1"
       d="m 39.041677,21.164538 -1.454028,-0.02148"
       id="path6" /><path
       style="fill:#190019;fill-opacity:1;stroke:none;stroke-width:1.26581;stroke-linecap:round;stroke-dasharray:none;stroke-opacity:1"
       d="m 50.155466,5.7658619 c 1.656626,0.762563 1.781602,2.58956 1.927738,2.735707 0.0025,0.0026 0.01084,0.0036 0.01084,0 -0.166651,0.0119 -0.882971,-1.663622 -3.405399,-1.45326"
       id="path8" /></g><metadata
     id="metadata1"><rdf:RDF><cc:Work
         rdf:about=""><dc:title>PlasmaPuffs Halloween 2025</dc:title></cc:Work></rdf:RDF></metadata></svg>
