<?xml version="1.0" encoding="UTF-8" standalone="no"?>
<!-- Created with Inkscape (http://www.inkscape.org/) -->

<svg
   width="99.028725"
   height="381.76807"
   viewBox="0 0 99.028725 381.76807"
   version="1.1"
   id="svg1"
   xml:space="preserve"
   xmlns="http://www.w3.org/2000/svg"
   xmlns:svg="http://www.w3.org/2000/svg"
   xmlns:rdf="http://www.w3.org/1999/02/22-rdf-syntax-ns#"
   xmlns:cc="http://creativecommons.org/ns#"
   xmlns:dc="http://purl.org/dc/elements/1.1/"><title
     id="title15">PlasmaPuffs</title><defs
     id="defs1" /><g
     id="plasmapuffs"
     style="display:none"
     transform="matrix(1.4331894,0,0,1.4331894,-28.915852,-15.283907)"><path
       style="display:inline;fill:#fae196;fill-opacity:1;stroke:#000000;stroke-width:5.00004;stroke-dasharray:none;stroke-opacity:1"
       d="M 62.043764,178.88504 C 205.0061,221.04071 230.51525,66.087681 109.3633,15.984254 88.700042,7.4387605 65.340918,18.312675 46.820962,37.967059 8.2685932,78.880959 -9.3139625,157.84357 62.043764,178.88504 Z"
       id="path12" /><path
       style="display:inline;fill:none;fill-opacity:1;stroke:#000000;stroke-width:5.00001;stroke-linecap:round;stroke-dasharray:none;stroke-opacity:1"
       d="m 89.928278,157.13358 c 3.199264,8.53147 14.607872,15.16452 26.552722,-0.95607"
       id="path15" /><path
       style="fill:#000000;fill-opacity:1;stroke:none;stroke-width:5.00001;stroke-dasharray:none;stroke-opacity:1"
       d="m 143.6466,16.528999 c -10.52343,7.184823 -10.62325,23.798343 -10.40113,43.14666 1.25416,12.210095 -4.37995,29.751416 9.45017,35.995324 17.05874,1.728533 13.62186,-64.768709 9.18227,-75.952244 -0.76861,-1.565182 -3.90222,-5.385802 -8.23131,-3.18974 z"
       id="path14" /><path
       style="fill:#000000;fill-opacity:1;stroke:none;stroke-width:5.00001;stroke-dasharray:none;stroke-opacity:1"
       d="M 47.583635,24.909894 C 42.183887,36.607484 43.676955,67.373177 44.47508,79.071183 45.262055,97.867309 58.019238,96.76788 61.827008,88.75617 64.323543,83.503294 65.29254,71.323284 65.793026,52.440492 68.164988,7.3733368 52.858016,14.167166 47.583635,24.909894 Z"
       id="path13" /></g><g
     id="layer4"
     style="display:inline;opacity:1"
     transform="translate(-13.716577,-0.59618782)"><rect
       style="fill:#aa4400;fill-opacity:1;stroke:#2b1100;stroke-width:8;stroke-linecap:round;stroke-dasharray:none"
       id="rect3"
       width="23.520355"
       height="244.59575"
       x="52.211243"
       y="118.98848"
       rx="2.5"
       ry="2.4999998" /><path
       style="display:inline;opacity:1;fill:#803300;fill-opacity:1;stroke:none;stroke-width:2.49999;stroke-linecap:round;stroke-linejoin:bevel;stroke-dasharray:none;stroke-opacity:1;paint-order:markers fill stroke"
       d="m 64.220892,127.17469 7.754872,0.0947 -0.2715,230.23866 -7.777607,0.58415 z"
       id="path10" /><rect
       style="fill:#2b1100;fill-opacity:1;stroke:none;stroke-width:2.54253;stroke-linecap:round;stroke-linejoin:bevel;stroke-dasharray:none;stroke-opacity:1;paint-order:markers fill stroke"
       id="rect11-3"
       width="21.894447"
       height="1.9974335"
       x="55.130947"
       y="151.70308"
       transform="matrix(0.96683501,-0.25540176,0,1,0,0)" /><rect
       style="fill:#2b1100;fill-opacity:1;stroke:none;stroke-width:2.54253;stroke-linecap:round;stroke-linejoin:bevel;stroke-dasharray:none;stroke-opacity:1;paint-order:markers fill stroke"
       id="rect11-3-5"
       width="21.894447"
       height="1.9974335"
       x="54.872242"
       y="161.68378"
       transform="matrix(0.96683501,-0.25540176,0,1,0,0)" /><rect
       style="fill:#2b1100;fill-opacity:1;stroke:none;stroke-width:2.54253;stroke-linecap:round;stroke-linejoin:bevel;stroke-dasharray:none;stroke-opacity:1;paint-order:markers fill stroke"
       id="rect11-3-5-0"
       width="21.894447"
       height="1.9974335"
       x="56.129456"
       y="171.84485"
       transform="matrix(0.96683501,-0.25540176,0,1,0,0)" /><rect
       style="fill:#2b1100;fill-opacity:1;stroke:none;stroke-width:2.54253;stroke-linecap:round;stroke-linejoin:bevel;stroke-dasharray:none;stroke-opacity:1;paint-order:markers fill stroke"
       id="rect11-3-5-0-5"
       width="21.894447"
       height="1.9974335"
       x="56.984985"
       y="181.9406"
       transform="matrix(0.96683501,-0.25540176,0,1,0,0)" /><rect
       style="display:inline;opacity:1;fill:#2b1100;fill-opacity:1;stroke:none;stroke-width:2.54253;stroke-linecap:round;stroke-linejoin:bevel;stroke-dasharray:none;stroke-opacity:1;paint-order:markers fill stroke"
       id="rect11-3-5-0-5-6"
       width="21.894447"
       height="1.9974335"
       x="57.343544"
       y="191.82742"
       transform="matrix(0.96683501,-0.25540176,0,1,0,0)" /><rect
       style="display:inline;fill:#2b1100;fill-opacity:1;stroke:none;stroke-width:2.54253;stroke-linecap:round;stroke-linejoin:bevel;stroke-dasharray:none;stroke-opacity:1;paint-order:markers fill stroke"
       id="rect11-3-1"
       width="21.894447"
       height="1.9974335"
       x="54.476128"
       y="201.92976"
       transform="matrix(0.96683501,-0.25540176,0,1,0,0)" /><rect
       style="display:inline;fill:#2b1100;fill-opacity:1;stroke:none;stroke-width:2.54253;stroke-linecap:round;stroke-linejoin:bevel;stroke-dasharray:none;stroke-opacity:1;paint-order:markers fill stroke"
       id="rect11-3-5-7"
       width="21.894447"
       height="1.9974335"
       x="54.217422"
       y="211.91046"
       transform="matrix(0.96683501,-0.25540176,0,1,0,0)" /><rect
       style="display:inline;fill:#2b1100;fill-opacity:1;stroke:none;stroke-width:2.54253;stroke-linecap:round;stroke-linejoin:bevel;stroke-dasharray:none;stroke-opacity:1;paint-order:markers fill stroke"
       id="rect11-3-5-0-1"
       width="21.894447"
       height="1.9974335"
       x="55.474636"
       y="222.07153"
       transform="matrix(0.96683501,-0.25540176,0,1,0,0)" /><rect
       style="display:inline;fill:#2b1100;fill-opacity:1;stroke:none;stroke-width:2.54253;stroke-linecap:round;stroke-linejoin:bevel;stroke-dasharray:none;stroke-opacity:1;paint-order:markers fill stroke"
       id="rect11-3-5-0-5-1"
       width="21.894447"
       height="1.9974335"
       x="56.330166"
       y="232.16728"
       transform="matrix(0.96683501,-0.25540176,0,1,0,0)" /><rect
       style="display:inline;fill:#2b1100;fill-opacity:1;stroke:none;stroke-width:2.54253;stroke-linecap:round;stroke-linejoin:bevel;stroke-dasharray:none;stroke-opacity:1;paint-order:markers fill stroke"
       id="rect11-3-5-0-5-6-5"
       width="21.894447"
       height="1.9974335"
       x="56.688725"
       y="242.05411"
       transform="matrix(0.96683501,-0.25540176,0,1,0,0)" /><rect
       style="display:inline;fill:#2b1100;fill-opacity:1;stroke:none;stroke-width:2.54253;stroke-linecap:round;stroke-linejoin:bevel;stroke-dasharray:none;stroke-opacity:1;paint-order:markers fill stroke"
       id="rect11-3-1-3"
       width="21.894447"
       height="1.9974335"
       x="55.049492"
       y="251.78137"
       transform="matrix(0.96683501,-0.25540176,0,1,0,0)" /><rect
       style="display:inline;fill:#2b1100;fill-opacity:1;stroke:none;stroke-width:2.54253;stroke-linecap:round;stroke-linejoin:bevel;stroke-dasharray:none;stroke-opacity:1;paint-order:markers fill stroke"
       id="rect11-3-5-7-1"
       width="21.894447"
       height="1.9974335"
       x="54.790787"
       y="261.76208"
       transform="matrix(0.96683501,-0.25540176,0,1,0,0)" /><rect
       style="display:inline;fill:#2b1100;fill-opacity:1;stroke:none;stroke-width:2.54253;stroke-linecap:round;stroke-linejoin:bevel;stroke-dasharray:none;stroke-opacity:1;paint-order:markers fill stroke"
       id="rect11-3-5-0-1-2"
       width="21.894447"
       height="1.9974335"
       x="56.048"
       y="271.92316"
       transform="matrix(0.96683501,-0.25540176,0,1,0,0)" /><rect
       style="display:inline;fill:#2b1100;fill-opacity:1;stroke:none;stroke-width:2.54253;stroke-linecap:round;stroke-linejoin:bevel;stroke-dasharray:none;stroke-opacity:1;paint-order:markers fill stroke"
       id="rect11-3-5-0-5-1-3"
       width="21.894447"
       height="1.9974335"
       x="56.90353"
       y="282.01889"
       transform="matrix(0.96683501,-0.25540176,0,1,0,0)" /><rect
       style="display:inline;fill:#2b1100;fill-opacity:1;stroke:none;stroke-width:2.54253;stroke-linecap:round;stroke-linejoin:bevel;stroke-dasharray:none;stroke-opacity:1;paint-order:markers fill stroke"
       id="rect11-3-5-0-5-6-5-3"
       width="21.894447"
       height="1.9974335"
       x="57.262089"
       y="291.9057"
       transform="matrix(0.96683501,-0.25540176,0,1,0,0)" /><rect
       style="display:inline;fill:#2b1100;fill-opacity:1;stroke:none;stroke-width:2.54253;stroke-linecap:round;stroke-linejoin:bevel;stroke-dasharray:none;stroke-opacity:1;paint-order:markers fill stroke"
       id="rect11-3-1-3-8"
       width="21.894447"
       height="1.9974335"
       x="55.576435"
       y="302.23874"
       transform="matrix(0.96683501,-0.25540176,0,1,0,0)" /><rect
       style="display:inline;fill:#2b1100;fill-opacity:1;stroke:none;stroke-width:2.54253;stroke-linecap:round;stroke-linejoin:bevel;stroke-dasharray:none;stroke-opacity:1;paint-order:markers fill stroke"
       id="rect11-3-5-7-1-7"
       width="21.894447"
       height="1.9974335"
       x="55.31773"
       y="312.21945"
       transform="matrix(0.96683501,-0.25540176,0,1,0,0)" /><rect
       style="display:inline;fill:#2b1100;fill-opacity:1;stroke:none;stroke-width:2.54253;stroke-linecap:round;stroke-linejoin:bevel;stroke-dasharray:none;stroke-opacity:1;paint-order:markers fill stroke"
       id="rect11-3-5-0-1-2-4"
       width="21.894447"
       height="1.9974335"
       x="56.574947"
       y="322.38052"
       transform="matrix(0.96683501,-0.25540176,0,1,0,0)" /><rect
       style="display:inline;fill:#2b1100;fill-opacity:1;stroke:none;stroke-width:2.54253;stroke-linecap:round;stroke-linejoin:bevel;stroke-dasharray:none;stroke-opacity:1;paint-order:markers fill stroke"
       id="rect11-3-5-0-5-1-3-2"
       width="21.894447"
       height="1.9974335"
       x="57.430477"
       y="332.47626"
       transform="matrix(0.96683501,-0.25540176,0,1,0,0)" /><rect
       style="display:inline;fill:#2b1100;fill-opacity:1;stroke:none;stroke-width:2.54253;stroke-linecap:round;stroke-linejoin:bevel;stroke-dasharray:none;stroke-opacity:1;paint-order:markers fill stroke"
       id="rect11-3-5-0-5-6-5-3-7"
       width="21.894447"
       height="1.9974335"
       x="57.789036"
       y="342.36307"
       transform="matrix(0.96683501,-0.25540176,0,1,0,0)" /><rect
       style="display:inline;fill:#2b1100;fill-opacity:1;stroke:none;stroke-width:2.54253;stroke-linecap:round;stroke-linejoin:bevel;stroke-dasharray:none;stroke-opacity:1;paint-order:markers fill stroke"
       id="rect11-3-5-0-5-6-5-3-7-9"
       width="21.894447"
       height="1.9974335"
       x="57.120129"
       y="352.08447"
       transform="matrix(0.96683501,-0.25540176,0,1,0,0)" /><rect
       style="display:inline;fill:#2b1100;fill-opacity:1;stroke:none;stroke-width:2.54253;stroke-linecap:round;stroke-linejoin:bevel;stroke-dasharray:none;stroke-opacity:1;paint-order:markers fill stroke"
       id="rect11-3-5-0-5-6-5-3-7-9-2"
       width="21.894447"
       height="1.9974335"
       x="56.28603"
       y="362.48431"
       transform="matrix(0.96683501,-0.25540176,0,1,0,0)" /><ellipse
       style="display:inline;opacity:1;fill:#fac800;fill-opacity:1;stroke:#2b1100;stroke-width:8;stroke-linecap:round;stroke-dasharray:none"
       id="path3"
       cx="63.548927"
       cy="368.37711"
       rx="17.640266"
       ry="9.9871674" /></g><metadata
     id="metadata15"><rdf:RDF><cc:Work
         rdf:about=""><dc:title>PlasmaPuffs</dc:title></cc:Work></rdf:RDF></metadata><g
     id="layer1"
     style="display:inline"
     transform="translate(-144.28405,-16.358218)"><path
       style="fill:#b3b3b3;stroke:#333333;stroke-width:7.06336;stroke-dasharray:none;paint-order:markers fill stroke"
       d="m 195.38972,26.184278 -30.89384,61.787688 a 1.9595028,1.9595028 76.514836 0 0 0.58804,2.452196 l 31.3545,23.171158 30.465,-23.49021 a 1.3125995,1.3125995 102.90036 0 0 0.37253,-1.626493 L 196.12878,26.184278 a 0.41314638,0.41314638 180 0 0 -0.73906,0 z"
       id="path2"
       transform="matrix(1,0,0,1.2827966,-1.503274,-12.598806)" /><path
       style="display:inline;fill:#cccccc;fill-opacity:1;stroke:none;stroke-width:8;stroke-dasharray:none;stroke-opacity:1;paint-order:markers fill stroke"
       d="m 194.28085,32.045459 -26.9862,68.325131 19.49003,18.56454 z"
       id="path11" /><path
       style="display:inline;fill:#999999;fill-opacity:1;stroke:none;stroke-width:8;stroke-dasharray:none;stroke-opacity:1;paint-order:markers fill stroke"
       d="m 194.01428,30.497777 28.02005,70.140083 -19.31827,18.81177 z"
       id="path11-8" /><path
       style="fill:#fac800;fill-opacity:1;stroke:#2b1100;stroke-width:5.92471;stroke-dasharray:none;stroke-opacity:1;paint-order:markers fill stroke"
       d="m 174.11267,108.8356 c 15.35864,0.29709 29.32267,0.38936 43.9446,0.57825 0.90614,0.0117 1.12675,0.54665 0.49275,1.19435 l -20.87737,21.32854 a 1.6990931,1.6990931 179.89681 0 1 -2.42414,0.004 l -21.63527,-21.94413 c -0.65044,-0.65972 -0.42684,-1.17929 0.49943,-1.16137 z"
       id="path4"
       transform="matrix(1.9199954,0,0,0.94960678,-182.66785,17.275896)" /><path
       style="display:inline;fill:#ffe680;fill-opacity:1;stroke:none;stroke-width:8.00001;stroke-dasharray:none;stroke-opacity:1;paint-order:markers fill stroke"
       d="m 195.09759,123.73978 -0.44313,15.83203 -34.80257,-16.12771 z"
       id="path18" /></g><ellipse
     style="display:none;opacity:0.5;fill:#fae196;stroke:#000000;stroke-width:5.77297;stroke-linecap:round"
     id="path1"
     cx="49.873951"
     cy="207.36397"
     rx="29.422155"
     ry="30.233614" /></svg>
