<?xml version="1.0" encoding="UTF-8" standalone="no"?>
<!-- Created with Inkscape (http://www.inkscape.org/) -->

<svg
   width="255.99998"
   height="160.00003"
   viewBox="0 0 255.99998 160.00003"
   version="1.1"
   id="svg1"
   xml:space="preserve"
   xmlns="http://www.w3.org/2000/svg"
   xmlns:svg="http://www.w3.org/2000/svg"
   xmlns:rdf="http://www.w3.org/1999/02/22-rdf-syntax-ns#"
   xmlns:cc="http://creativecommons.org/ns#"
   xmlns:dc="http://purl.org/dc/elements/1.1/"><title
     id="title15">PlasmaPuffs Clipped Eyes</title><defs
     id="defs1" /><metadata
     id="metadata15"><rdf:RDF><cc:Work
         rdf:about=""><dc:title>PlasmaPuffs Clipped Eyes</dc:title></cc:Work></rdf:RDF></metadata><g
     id="layer2"
     transform="matrix(1.0905753,0,0,1.068474,-16.645565,1.6081094)"
     style="display:inline;opacity:1;stroke-width:0.926382"><g
       id="layer3"
       transform="translate(2.596668,-6.1670864)"
       style="stroke-width:0.926382"><path
         d="M 62.920376,62.234164 C 93.184302,-24.732968 202.07802,3.7322265 221.5078,51.888425 l -14.40757,8.517771 c -1.65081,-4.434699 -24.1877,-33.49736 -11.95928,-10.364702 2.08168,7.546769 3.84864,15.18671 5.97964,22.722617 z"
         id="path18"
         style="fill:#e13232;fill-opacity:1;stroke-width:0.926382"
         transform="matrix(1.1996018,0,0,1.4333854,-38.068178,-0.86270835)" /><path
         style="display:inline;opacity:1;fill:none;fill-opacity:1;stroke:#000000;stroke-width:4.63192;stroke-linecap:round;stroke-dasharray:none"
         d="m 201.12059,72.764111 c -2.131,-7.535907 -3.89796,-15.175848 -5.97964,-22.722617 -12.22842,-23.132658 10.30847,5.930003 11.95928,10.364702"
         id="path9"
         transform="matrix(1.1996018,0,0,1.4333854,-38.068178,-0.86270835)" /><path
         style="display:inline;opacity:1;fill:none;fill-opacity:1;stroke:#000000;stroke-width:4.63192;stroke-linecap:round;stroke-dasharray:none"
         d="M 62.920376,62.234164 C 93.184302,-24.732968 202.07802,3.7322265 221.5078,51.888425"
         id="path10"
         transform="matrix(1.1996018,0,0,1.4333854,-38.068178,-0.86270835)" /></g><path
       id="path2"
       style="display:inline;opacity:1;fill:#ffffff;stroke:#000000;stroke-width:6.07378;stroke-linecap:round"
       d="M 57.462776,86.034196 C 43.308494,69.120215 18.300189,80.807666 18.299995,105.4157 c -0.0017,22.00115 20.271652,34.24763 35.041492,23.28971 9.909484,17.54839 30.915466,19.45512 42.972442,4.20217 9.108441,10.68401 23.863371,10.41117 32.684471,-0.66351 11.10822,17.41978 33.23702,17.25579 44.158,-0.34995 14.7495,12.58502 36.26904,0.38606 36.26921,-22.30705 0.002,-24.124924 -24.1188,-35.993065 -38.49269,-20.151384 -12.01254,-15.016231 -32.75895,-13.17867 -42.71005,4.08178 -8.08524,-9.22274 -20.51534,-10.06637 -29.404301,-2.27605 -9.665633,-16.399821 -29.20732,-18.655931 -41.355793,-5.20722 z" /><path
       id="path3"
       style="display:inline;opacity:1;fill:#ffffff;fill-opacity:1;stroke:#000000;stroke-width:6.07378;stroke-linecap:round;stroke-dasharray:none"
       d="m 230.42234,60.433785 c -15.27987,-15.344471 -32.53474,16.134821 -15.53396,26.704541 0.18624,19.816314 25.1928,20.843304 27.24676,1.21849 10.76711,-10.99431 2.06533,-31.670463 -11.7128,-27.923031 z" /></g></svg>
