<?xml version="1.0" encoding="UTF-8" standalone="no"?>
<!-- Created with Inkscape (http://www.inkscape.org/) -->

<svg
   width="256"
   height="256"
   viewBox="0 0 256 256"
   version="1.1"
   id="svg1"
   xml:space="preserve"
   inkscape:version="1.4.3 (0d15f75, 2025-12-25)"
   sodipodi:docname="christmas_hat.svg"
   inkscape:export-filename="..\PlasmaPuffs.png"
   inkscape:export-xdpi="768"
   inkscape:export-ydpi="768"
   xmlns:inkscape="http://www.inkscape.org/namespaces/inkscape"
   xmlns:sodipodi="http://sodipodi.sourceforge.net/DTD/sodipodi-0.dtd"
   xmlns="http://www.w3.org/2000/svg"
   xmlns:svg="http://www.w3.org/2000/svg"
   xmlns:rdf="http://www.w3.org/1999/02/22-rdf-syntax-ns#"
   xmlns:cc="http://creativecommons.org/ns#"
   xmlns:dc="http://purl.org/dc/elements/1.1/"><title
     id="title15">PlasmaPuffs Clipped Eyes</title><sodipodi:namedview
     id="namedview1"
     pagecolor="#ffffff"
     bordercolor="#000000"
     borderopacity="0.25"
     inkscape:showpageshadow="false"
     inkscape:pageopacity="0.0"
     inkscape:pagecheckerboard="true"
     inkscape:deskcolor="#d1d1d1"
     inkscape:document-units="px"
     showborder="false"
     borderlayer="false"
     labelstyle="below"
     inkscape:zoom="1.5380872"
     inkscape:cx="18.854587"
     inkscape:cy="47.786627"
     inkscape:window-width="1920"
     inkscape:window-height="1094"
     inkscape:window-x="-11"
     inkscape:window-y="-11"
     inkscape:window-maximized="1"
     inkscape:current-layer="layer2"
     showgrid="false" /><defs
     id="defs1"><inkscape:perspective
       sodipodi:type="inkscape:persp3d"
       inkscape:vp_x="14.094137 : 86.281354 : 1"
       inkscape:vp_y="0 : 1000 : 0"
       inkscape:vp_z="175.38153 : 84.590057 : 1"
       inkscape:persp3d-origin="128 : 85.333333 : 1"
       id="perspective18" /><inkscape:path-effect
       effect="simplify"
       id="path-effect13"
       is_visible="false"
       lpeversion="1.3"
       threshold="5"
       steps="1"
       smooth_angles="360"
       helper_size="10"
       simplify_individual_paths="true"
       simplify_just_coalesce="false" /><inkscape:path-effect
       effect="fill_between_many"
       method="originald"
       linkedpaths="#path10,0,1|#path9,0,1|#path17,0,1|"
       id="path-effect17" /></defs><g
     inkscape:groupmode="layer"
     id="layer9"
     inkscape:label="Frost Aura Back"
     sodipodi:insensitive="true"
     style="display:none"><path
       id="path51"
       style="opacity:1;fill:#c8e1fa;fill-opacity:0.67;stroke:none;stroke-width:5;stroke-linecap:round;stroke-dasharray:none;stroke-opacity:1"
       d="m 194.69727,12.947266 a 12.5,12.5 0 0 0 -12.5,12.5 12.5,12.5 0 0 0 0.29687,2.703125 50,50 0 0 0 -35.26758,47.78125 50,50 0 0 0 46.02735,49.841799 25,25 0 0 0 -0.002,0.3125 25,25 0 0 0 13.46875,22.18164 12.5,12.5 0 0 0 -3.63476,8.8125 12.5,12.5 0 0 0 12.5,12.5 12.5,12.5 0 0 0 12.5,-12.5 12.5,12.5 0 0 0 -2.25977,-7.16797 25,25 0 0 0 17.42578,-23.82617 25,25 0 0 0 -7.69726,-18.04492 50,50 0 0 0 11.67187,-32.109379 50,50 0 0 0 -40.11523,-49.013672 12.5,12.5 0 0 0 0.0859,-1.470703 12.5,12.5 0 0 0 -12.5,-12.5 z M 80.601562,17.685547 a 25,25 0 0 0 -22.800781,14.75 25,25 0 0 0 -12.804687,-3.527344 25,25 0 0 0 -25,25 25,25 0 0 0 25,25 25,25 0 0 0 22.802734,-14.75 25,25 0 0 0 12.802734,3.527344 25,25 0 0 0 24.999998,-25 25,25 0 0 0 -24.999998,-25 z M 67.359375,98.8125 a 50,50 0 0 0 -26.908203,7.85938 12.5,12.5 0 0 0 -10.660156,-5.97266 12.5,12.5 0 0 0 -12.5,12.5 12.5,12.5 0 0 0 6.550781,10.99414 50,50 0 0 0 -6.482422,24.61914 50,50 0 0 0 50,50 50,50 0 0 0 50.000005,-50 50,50 0 0 0 -50.000005,-50 z" /></g><g
     id="plasmapuffs"
     inkscape:label="PlasmaPuffs"
     inkscape:highlight-color="#fac800"
     style="display:none;opacity:1"
     transform="translate(26.488923,53.463493)"
     sodipodi:insensitive="true"><path
       style="display:inline;fill:#fae196;fill-opacity:1;stroke:#000000;stroke-width:5.00001;stroke-dasharray:none;stroke-opacity:1"
       d="M 62.043764,178.88504 C 205.0061,221.04071 230.51525,66.087681 109.3633,15.984254 88.700042,7.4387605 65.340918,18.312675 46.820962,37.967059 8.2685932,78.880959 -9.3139625,157.84357 62.043764,178.88504 Z"
       id="path12"
       sodipodi:nodetypes="ssss"
       inkscape:label="Body" /><path
       style="display:inline;fill:none;fill-opacity:1;stroke:#000000;stroke-width:5.00001;stroke-linecap:round;stroke-dasharray:none;stroke-opacity:1"
       d="m 89.928278,157.13358 c 3.199264,8.53147 14.607872,15.16452 26.552722,-0.95607"
       id="path15"
       sodipodi:nodetypes="cc"
       inkscape:label="Mouth" /><path
       id="path14"
       style="fill:#000000;fill-opacity:1;stroke:none;stroke-width:5.00001;stroke-dasharray:none;stroke-opacity:1"
       inkscape:label="Right Eye"
       d="m 134.91846,31.055665 c -1.81986,7.92201 -1.79751,17.845714 -1.67383,28.61914 1.25416,12.210095 -4.37895,29.752186 9.45117,35.996094 11.45397,1.160611 13.66665,-28.436564 12.54102,-51.396484 -16.39973,-10.28724 -15.70457,-10.656796 -20.31836,-13.21875 z"
       sodipodi:nodetypes="ccccc" /><path
       id="path13"
       style="fill:#000000;fill-opacity:1;stroke:none;stroke-width:5.00001;stroke-dasharray:none;stroke-opacity:1"
       inkscape:label="Left Eye"
       d="m 63.029788,22.249024 c -0.01316,0.006 -15.790665,14.144465 -18.601562,16.828125 -1.432357,13.865108 -0.518315,31.710231 0.04687,39.994141 0.786975,18.796126 13.543792,17.697257 17.351562,9.685547 2.49654,-5.252876 3.466316,-17.433615 3.966802,-36.316407 0.823529,-15.647004 -0.484831,-25.04216 -2.763672,-30.191406 z"
       sodipodi:nodetypes="cccscc" /></g><metadata
     id="metadata15"><rdf:RDF><cc:Work
         rdf:about=""><dc:title>PlasmaPuffs Clipped Eyes</dc:title></cc:Work></rdf:RDF></metadata><g
     inkscape:groupmode="layer"
     id="layer2"
     inkscape:label="Christmas Hat"
     inkscape:highlight-color="#ff0000"
     transform="matrix(1.0354909,0,0,1,-3.5263532,2.5109085)"
     style="display:inline;opacity:1;stroke-width:0.982713"><g
       inkscape:groupmode="layer"
       id="layer3"
       inkscape:label="Red Part"
       transform="translate(2.596668,-6.1670864)"
       style="stroke-width:0.982713"><path
         inkscape:original-d="M 0,0"
         inkscape:path-effect="#path-effect17"
         d="M 62.920376,62.234164 C 93.184302,-24.732968 202.07802,3.7322265 221.5078,51.888425 l -14.40757,8.517771 c -1.65081,-4.434699 -24.1877,-33.49736 -11.95928,-10.364702 2.08168,7.546769 3.84864,15.18671 5.97964,22.722617 z"
         id="path18"
         style="fill:#e13232;fill-opacity:1;stroke-width:0.982713"
         transform="matrix(1.1996018,0,0,1.4333854,-41.835424,40.747416)"
         inkscape:label="Fill" /><path
         style="display:inline;opacity:1;fill:none;fill-opacity:1;stroke:#000000;stroke-width:4.91357;stroke-linecap:round;stroke-dasharray:none"
         d="m 201.12059,72.764111 c -2.131,-7.535907 -3.89796,-15.175848 -5.97964,-22.722617 -12.22842,-23.132658 10.30847,5.930003 11.95928,10.364702"
         id="path9"
         sodipodi:nodetypes="csc"
         transform="matrix(1.1996018,0,0,1.4333854,-41.835424,40.747416)" /><path
         style="display:inline;opacity:1;fill:none;fill-opacity:1;stroke:#000000;stroke-width:4.91357;stroke-linecap:round;stroke-dasharray:none"
         d="M 62.920376,62.234164 C 93.184302,-24.732968 202.07802,3.7322265 221.5078,51.888425"
         id="path10"
         sodipodi:nodetypes="cc"
         transform="matrix(1.1996018,0,0,1.4333854,-41.835424,40.747416)" /></g><path
       id="path2"
       style="display:inline;opacity:1;fill:#ffffff;stroke:#000000;stroke-width:6.44313;stroke-linecap:round"
       d="m 53.69553,127.64432 c -14.154282,-16.91398 -39.162587,-5.22653 -39.162781,19.3815 -0.0017,22.00115 20.271652,34.24763 35.041492,23.28971 9.909484,17.54839 30.915466,19.45512 42.972447,4.20217 9.108432,10.68401 23.863362,10.41117 32.684462,-0.66351 11.10822,17.41978 33.23702,17.25579 44.158,-0.34995 14.7495,12.58502 36.26904,0.38606 36.26921,-22.30705 0.002,-24.12492 -24.1188,-35.99306 -38.49269,-20.15138 -12.01254,-15.01623 -32.75895,-13.17867 -42.71005,4.08178 -8.08524,-9.22274 -20.51534,-10.06637 -29.404295,-2.27605 C 85.38569,116.45172 65.844003,114.19561 53.69553,127.64432 Z"
       sodipodi:nodetypes="ccccccccccc" /><path
       id="path3"
       style="display:inline;opacity:1;fill:#ffffff;fill-opacity:1;stroke:#000000;stroke-width:6.44313;stroke-linecap:round;stroke-dasharray:none"
       d="m 226.65509,102.04391 c -15.27987,-15.344472 -32.53474,16.13482 -15.53396,26.70454 0.18624,19.81631 25.1928,20.8433 27.24676,1.21849 10.76711,-10.99431 2.06533,-31.670462 -11.7128,-27.92303 z"
       sodipodi:nodetypes="cccc" /></g><g
     inkscape:groupmode="layer"
     id="layer4"
     inkscape:label="Gift Box"
     transform="matrix(1,0,0,0.78062358,-6.0290546,45.145276)"
     style="display:none;opacity:1;fill:#329632;fill-opacity:1;stroke-width:1.13182"
     sodipodi:insensitive="true"><g
       inkscape:groupmode="layer"
       id="g42"
       inkscape:label="Box 3D"
       transform="matrix(0.87436564,0,0,1,7.5851336,18.339911)"
       style="fill:#329632;fill-opacity:1;stroke-width:1.21041"><rect
         style="opacity:1;fill:#329632;fill-opacity:1;stroke:#000000;stroke-width:6.11166;stroke-linecap:round;stroke-dasharray:none"
         id="rect40"
         width="50.217823"
         height="46.533268"
         x="20.187351"
         y="170.98555"
         rx="2.2915552"
         ry="3.2025678"
         transform="matrix(0.98058439,0.19609758,0,1,0,0)" /><rect
         style="opacity:1;fill:#329632;fill-opacity:1;stroke:#000000;stroke-width:6.60562;stroke-linecap:round;stroke-dasharray:none"
         id="rect41"
         width="43.756302"
         height="44.240646"
         x="-126.58665"
         y="231.76672"
         transform="matrix(-0.83941605,0.54348937,0,1,0,0)"
         ry="3.2025678"
         rx="2.041204" /></g><g
       inkscape:groupmode="layer"
       id="layer5"
       inkscape:label="Lid 3D"
       style="fill:#329632;fill-opacity:1;stroke-width:1.13182"><rect
         style="opacity:1;fill:#329632;fill-opacity:1;stroke:#000000;stroke-width:5.73677;stroke-linecap:round;stroke-dasharray:none"
         id="rect39"
         width="50.60355"
         height="18.947432"
         x="20.342415"
         y="168.85619"
         rx="2.4218419"
         ry="3.2025678"
         transform="matrix(0.97310983,0.23034161,0,1,0,0)" /><rect
         style="opacity:1;fill:#329632;fill-opacity:1;stroke:#000000;stroke-width:6.21012;stroke-linecap:round;stroke-dasharray:none"
         id="rect38"
         width="44.004803"
         height="18.677071"
         x="-127.03157"
         y="231.81577"
         transform="matrix(-0.83042394,0.55713202,0,1,0,0)"
         ry="3.2025678"
         rx="2.6247342" /><rect
         style="fill:#329632;fill-opacity:1;stroke:#000000;stroke-width:6.75229;stroke-linecap:round;stroke-dasharray:none;stroke-opacity:1"
         id="rect39-4"
         width="47.359928"
         height="46.130802"
         x="225.85422"
         y="189.58003"
         rx="2.2076228"
         ry="2.2255027"
         transform="matrix(0.97521587,0.22125553,-0.84953707,0.52752892,0,0)" /></g><g
       inkscape:groupmode="layer"
       id="layer6"
       inkscape:label="Ribbon"
       transform="matrix(1,0,0,1.2810272,0.36415363,-58.492042)"><rect
         style="fill:#e13232;fill-opacity:1;stroke:#000000;stroke-width:2.68878;stroke-linecap:round;stroke-dasharray:none"
         id="rect41-3"
         width="8.5350761"
         height="33.481262"
         x="-102.90491"
         y="245.58426"
         transform="matrix(-0.8645164,0.50260461,0,1,0,0)"
         ry="2.4999998"
         rx="0.84912252" /><rect
         style="fill:#e13232;fill-opacity:1;stroke:#000000;stroke-width:2.71118;stroke-linecap:round;stroke-dasharray:none"
         id="rect41-3-5"
         width="8.6777973"
         height="12.228726"
         x="-107.77885"
         y="236.26802"
         transform="matrix(-0.85029792,0.52630166,0,1,0,0)"
         ry="2.4999995"
         rx="0.74333173" /><rect
         style="fill:#e13232;fill-opacity:1;stroke:#000000;stroke-width:2.52777;stroke-linecap:round;stroke-dasharray:none"
         id="rect40-0"
         width="8.7110739"
         height="33.589897"
         x="40.973351"
         y="192.14999"
         rx="0.26201987"
         ry="2.4999998"
         transform="matrix(0.97814939,0.20790326,0,1,0,0)" /><rect
         style="fill:#e13232;fill-opacity:1;stroke:#000000;stroke-width:2.52478;stroke-linecap:round;stroke-dasharray:none"
         id="rect40-0-5"
         width="8.6862068"
         height="13.34288"
         x="38.147694"
         y="177.6864"
         rx="0.2522099"
         ry="2.4999998"
         transform="matrix(0.98046465,0.19669537,0,1,0,0)" /><rect
         style="fill:#e13232;fill-opacity:1;stroke:#000000;stroke-width:3.32765;stroke-linecap:round;stroke-dasharray:none;stroke-opacity:1"
         id="rect39-4-6"
         width="11.614277"
         height="47.455227"
         x="282.70828"
         y="-353.85181"
         rx="0.47652629"
         ry="1.0507057"
         transform="matrix(-0.90736823,0.42033664,-0.98626613,-0.16516394,0,0)" /><rect
         style="fill:#e13232;fill-opacity:1;stroke:#000000;stroke-width:3.35162;stroke-linecap:round;stroke-dasharray:none;stroke-opacity:1"
         id="rect39-4-66"
         width="8.9397364"
         height="44.524796"
         x="-336.92191"
         y="-316.28708"
         rx="0.1362087"
         ry="0.13429607"
         transform="matrix(-0.98730503,-0.15883569,0.90875758,-0.41732442,0,0)" /><path
         style="opacity:1;fill:#e13232;fill-opacity:1;stroke:#000000;stroke-width:3.75;stroke-linecap:round;stroke-dasharray:none;stroke-opacity:1"
         d="m 60.228183,177.30197 c -8.579736,-3.61394 -24.838433,-13.19756 -19.241414,-23.91106 4.13017,-3.04699 16.099105,10.66045 19.666761,20.42173 1.513863,7.1884 0.573534,1.14025 0.902648,-0.54611 11.084074,-28.41231 33.455086,-16.56756 1.219378,2.93499"
         id="path42"
         sodipodi:nodetypes="csssc" /></g></g><g
     inkscape:groupmode="layer"
     id="layer8"
     inkscape:label="Gingerbread Man"
     transform="matrix(0.91231961,0,0,0.91339727,18.054474,14.830897)"
     style="display:none;stroke-width:1.09546"
     sodipodi:insensitive="true"><g
       inkscape:groupmode="layer"
       id="layer10"
       inkscape:label="Body"
       transform="matrix(1.0961071,0,0,1.0948139,-16.130524,-14.775153)"><rect
         style="opacity:1;fill:#c86419;fill-opacity:1;stroke:#000000;stroke-width:5.48673;stroke-linecap:round;stroke-dasharray:none;stroke-opacity:1"
         id="rect1"
         width="49.766598"
         height="36.122234"
         x="201.59964"
         y="-192.00533"
         transform="matrix(0.14341914,0.90204041,-0.90975973,0.06837644,14.716193,13.495584)" /><circle
         style="opacity:1;fill:#c86419;fill-opacity:1;stroke:#000000;stroke-width:5.4773;stroke-linecap:round;stroke-dasharray:none"
         id="path1"
         cx="201.07956"
         cy="178.30231"
         r="22.46907"
         transform="matrix(0.91231961,0,0,0.91339727,14.716193,13.495584)" /><circle
         style="fill:#c86419;fill-opacity:1;stroke:#000000;stroke-width:5.4773;stroke-linecap:round;stroke-dasharray:none"
         id="path1-1"
         cx="181.32048"
         cy="209.37242"
         r="13.481441"
         transform="matrix(0.91231961,0,0,0.91339727,14.716193,13.495584)" /><circle
         style="fill:#c86419;fill-opacity:1;stroke:#000000;stroke-width:5.4773;stroke-linecap:round;stroke-dasharray:none"
         id="path1-1-6"
         cx="228.02672"
         cy="227.99554"
         r="13.481441"
         transform="matrix(0.91231961,0,0,0.91339727,14.716193,13.495584)" /><circle
         style="fill:#c86419;fill-opacity:1;stroke:#000000;stroke-width:5.4773;stroke-linecap:round;stroke-dasharray:none"
         id="path1-1-2"
         cx="228.90878"
         cy="196.13426"
         r="13.481441"
         transform="matrix(0.91231961,0,0,0.91339727,14.716193,13.495584)" /><circle
         style="fill:#c86419;fill-opacity:1;stroke:#000000;stroke-width:5.4773;stroke-linecap:round;stroke-dasharray:none"
         id="path1-1-2-2"
         cx="201.00446"
         cy="235.02524"
         r="13.481441"
         transform="matrix(0.91231961,0,0,0.91339727,14.716193,13.495584)" /><ellipse
         style="opacity:1;fill:#c86419;fill-opacity:1;stroke:none;stroke-width:5.4773;stroke-linecap:round;stroke-dasharray:none;stroke-opacity:1"
         id="path4"
         cx="193.49339"
         cy="205.57616"
         rx="3.7138381"
         ry="3.8807523"
         transform="matrix(0.91231961,0,0,0.91339727,14.716193,13.495584)" /><ellipse
         style="fill:#c86419;fill-opacity:1;stroke:none;stroke-width:5.4773;stroke-linecap:round;stroke-dasharray:none;stroke-opacity:1"
         id="path4-1-9"
         cx="193.96158"
         cy="210.4153"
         rx="5.151453"
         ry="5.3829789"
         transform="matrix(0.91231961,0,0,0.91339727,14.716193,13.495584)" /><ellipse
         style="fill:#c86419;fill-opacity:1;stroke:none;stroke-width:5.47731;stroke-linecap:round;stroke-dasharray:none;stroke-opacity:1"
         id="path4-1-9-1-6-9"
         cx="216.66345"
         cy="190.68217"
         rx="11.170783"
         ry="5.3829789"
         transform="matrix(0.91231961,0,0,0.91339727,14.716193,13.495584)" /><ellipse
         style="fill:#c86419;fill-opacity:1;stroke:none;stroke-width:5.4773;stroke-linecap:round;stroke-dasharray:none;stroke-opacity:1"
         id="path4-1-9-1-6"
         cx="218.81761"
         cy="217.90451"
         rx="5.151453"
         ry="5.3829789"
         transform="matrix(0.91231961,0,0,0.91339727,14.716193,13.495584)" /><ellipse
         style="fill:#c86419;fill-opacity:1;stroke:none;stroke-width:5.4773;stroke-linecap:round;stroke-dasharray:none;stroke-opacity:1"
         id="path4-1-9-1-6-6"
         cx="204.11723"
         cy="218.63188"
         rx="7.3078756"
         ry="7.6363192"
         transform="matrix(0.91231961,0,0,0.91339727,14.716193,13.495584)" /><rect
         style="opacity:1;fill:#c86419;fill-opacity:1;stroke:none;stroke-width:5.62254;stroke-linecap:round;stroke-dasharray:none;stroke-opacity:1"
         id="rect4"
         width="10.554442"
         height="6.3009067"
         x="280.46594"
         y="142.73888"
         transform="matrix(0.87160732,0.26981372,-0.5305345,0.74307629,14.716193,13.495584)" /><rect
         style="fill:#c86419;fill-opacity:1;stroke:none;stroke-width:5.62254;stroke-linecap:round;stroke-dasharray:none;stroke-opacity:1"
         id="rect4-6"
         width="12.00424"
         height="7.1664224"
         x="280.41049"
         y="136.41138"
         transform="matrix(0.87160731,0.26981372,-0.5305345,0.74307629,14.716193,13.495584)" /><rect
         style="fill:#c86419;fill-opacity:1;stroke:none;stroke-width:5.47731;stroke-linecap:round;stroke-dasharray:none;stroke-opacity:1"
         id="rect4-6-4"
         width="19.828112"
         height="10.410981"
         x="183.40192"
         y="-242.48091"
         transform="matrix(-0.06932706,0.91075626,-0.90950611,-0.07167857,14.716193,13.495584)" /><rect
         style="fill:#c86419;fill-opacity:1;stroke:none;stroke-width:5.47731;stroke-linecap:round;stroke-dasharray:none;stroke-opacity:1"
         id="rect4-6-4-4"
         width="28.519636"
         height="14.974568"
         x="-196.67674"
         y="-233.1729"
         transform="matrix(-0.90523811,0.11358459,-0.11119415,-0.90658767,14.716193,13.495584)" /><rect
         style="fill:#c86419;fill-opacity:1;stroke:none;stroke-width:5.48584;stroke-linecap:round;stroke-dasharray:none;stroke-opacity:1"
         id="rect4-6-4-3"
         width="25.20261"
         height="8.2703066"
         x="264.19925"
         y="-83.596962"
         transform="matrix(0.40457949,0.81867153,-0.8470306,0.33931955,14.716193,13.495584)" /><rect
         style="fill:#c86419;fill-opacity:1;stroke:none;stroke-width:5.48584;stroke-linecap:round;stroke-dasharray:none;stroke-opacity:1"
         id="rect4-6-4-3-1"
         width="25.20261"
         height="8.2703066"
         x="-132.67511"
         y="-297.93393"
         transform="matrix(-0.82717615,0.3853009,-0.31850142,-0.85592734,14.716193,13.495584)" /></g><path
       style="opacity:1;fill:none;fill-opacity:1;stroke:#ffffff;stroke-width:2.73865;stroke-linecap:round;stroke-dasharray:none;stroke-opacity:0.9"
       d="m 174.20664,200.88384 c -0.54886,1.27918 5.76311,18.73084 5.21425,18.91357"
       id="path5"
       sodipodi:nodetypes="cc" /><circle
       style="fill:#ffffff;fill-opacity:0.9;stroke:none;stroke-width:2;stroke-linecap:round;stroke-dasharray:none;stroke-opacity:1"
       id="path48-4-1"
       cx="204.63084"
       cy="170.42496"
       inkscape:transform-center-x="-4.3507601"
       inkscape:transform-center-y="-1.9730076"
       r="2"
       transform="matrix(1.0961071,0,0,1.0948139,-16.130524,-14.775153)" /><path
       style="fill:none;fill-opacity:1;stroke:#ffffff;stroke-width:2.73865;stroke-linecap:round;stroke-dasharray:none;stroke-opacity:0.9"
       d="m 229.76209,185.58862 c -0.54886,1.27918 4.9398,19.64454 4.39093,19.82727"
       id="path5-8"
       sodipodi:nodetypes="cc" /><ellipse
       style="fill:#ffffff;fill-opacity:0.9;stroke:none;stroke-width:2.19092;stroke-linecap:round;stroke-dasharray:none;stroke-opacity:1"
       id="path48-4-1-4"
       cx="206.05984"
       cy="200.62936"
       inkscape:transform-center-x="-4.3507601"
       inkscape:transform-center-y="-1.9730076"
       rx="2.1922143"
       ry="2.1896279" /><circle
       style="opacity:1;fill:#ffffff;fill-opacity:0.9;stroke:none;stroke-width:2;stroke-linecap:round;stroke-dasharray:none;stroke-opacity:1"
       id="path48-4"
       cx="190.38205"
       cy="174.06018"
       inkscape:transform-center-x="-4.3507601"
       inkscape:transform-center-y="-1.9730076"
       r="2"
       transform="matrix(1.0961071,0,0,1.0948139,-16.130524,-14.775153)" /><ellipse
       style="fill:#ffffff;fill-opacity:0.9;stroke:none;stroke-width:2.19092;stroke-linecap:round;stroke-dasharray:none;stroke-opacity:1"
       id="path48-4-1-4-9"
       cx="208.34358"
       cy="207.26186"
       inkscape:transform-center-x="-4.3507601"
       inkscape:transform-center-y="-1.9730076"
       rx="2.1922143"
       ry="2.1896279" /><ellipse
       style="fill:#ffffff;fill-opacity:0.9;stroke:none;stroke-width:2.19092;stroke-linecap:round;stroke-dasharray:none;stroke-opacity:1"
       id="path48-4-1-4-9-3"
       cx="210.01833"
       cy="213.9529"
       inkscape:transform-center-x="-4.3507601"
       inkscape:transform-center-y="-1.9730076"
       rx="2.1922143"
       ry="2.1896279" /><path
       style="fill:none;fill-opacity:1;stroke:#ffffff;stroke-width:2.73865;stroke-linecap:round;stroke-dasharray:none;stroke-opacity:0.9"
       d="m 191.27253,236.70622 c 0.89364,1.06776 17.23983,3.49593 17.15457,4.0675"
       id="path5-8-6"
       inkscape:transform-center-x="1.0013699"
       inkscape:transform-center-y="0.16691408"
       sodipodi:nodetypes="cc" /><path
       style="fill:none;fill-opacity:1;stroke:#ffffff;stroke-width:2.73865;stroke-linecap:round;stroke-dasharray:none;stroke-opacity:0.9"
       d="m 224.22753,237.22218 c 1.05715,1.26155 13.04832,-14.03712 12.94746,-13.36181"
       id="path5-8-6-1"
       inkscape:transform-center-x="1.1846035"
       inkscape:transform-center-y="0.19720839"
       sodipodi:nodetypes="cc" /><path
       style="opacity:1;fill:none;fill-opacity:1;stroke:#ffffff;stroke-width:2.73865;stroke-linecap:round;stroke-dasharray:none;stroke-opacity:0.9"
       d="m 199.31402,182.39324 c 10.62977,9.5379 11.29267,-3.21436 11.1669,-4.05091"
       id="path6"
       sodipodi:nodetypes="cc" /></g><g
     inkscape:groupmode="layer"
     id="layer1"
     inkscape:label="Frost Aura Front"
     sodipodi:insensitive="true"
     style="display:none;stroke-width:1.09546"><path
       id="path51-8"
       style="fill:#c8e1fa;fill-opacity:0.21;stroke:none;stroke-width:5;stroke-linecap:round;stroke-dasharray:none;stroke-opacity:1"
       d="m 195.4686,15.994062 a 12.5,12.5 0 0 0 -12.5,12.5 12.5,12.5 0 0 0 0.29687,2.703125 50,50 0 0 0 -35.26758,47.78125 50,50 0 0 0 46.02735,49.841793 25,25 0 0 0 -0.002,0.3125 25,25 0 0 0 13.46875,22.18164 12.5,12.5 0 0 0 -3.63476,8.8125 12.5,12.5 0 0 0 12.5,12.5 12.5,12.5 0 0 0 12.5,-12.5 12.5,12.5 0 0 0 -2.25977,-7.16797 25,25 0 0 0 17.42578,-23.82617 25,25 0 0 0 -7.69726,-18.04492 50,50 0 0 0 11.67187,-32.109373 50,50 0 0 0 -40.11523,-49.013672 12.5,12.5 0 0 0 0.0859,-1.470703 12.5,12.5 0 0 0 -12.5,-12.5 z M 81.372893,20.732343 a 25,25 0 0 0 -22.800781,14.75 25,25 0 0 0 -12.804687,-3.527344 25,25 0 0 0 -25,25 25,25 0 0 0 25,25 25,25 0 0 0 22.802734,-14.75 25,25 0 0 0 12.802734,3.527344 25,25 0 0 0 24.999997,-25 25,25 0 0 0 -24.999997,-25 z M 68.130706,101.85929 a 50,50 0 0 0 -26.908203,7.85938 12.5,12.5 0 0 0 -10.660156,-5.97266 12.5,12.5 0 0 0 -12.5,12.5 12.5,12.5 0 0 0 6.550781,10.99414 50,50 0 0 0 -6.482422,24.61914 50,50 0 0 0 50,50 50,50 0 0 0 50.000004,-50 50,50 0 0 0 -50.000004,-50 z" /></g></svg>
