<?xml version="1.0" encoding="UTF-8" standalone="no"?>
<!-- Created with Inkscape (http://www.inkscape.org/) -->

<svg
   width="256"
   height="256"
   viewBox="0 0 256 256"
   version="1.1"
   id="svg1"
   xml:space="preserve"
   inkscape:version="1.4.3 (0d15f75, 2025-12-25)"
   sodipodi:docname="sunglasses.svg"
   inkscape:export-filename="PlasmaPuffs.png"
   inkscape:export-xdpi="768"
   inkscape:export-ydpi="768"
   xmlns:inkscape="http://www.inkscape.org/namespaces/inkscape"
   xmlns:sodipodi="http://sodipodi.sourceforge.net/DTD/sodipodi-0.dtd"
   xmlns="http://www.w3.org/2000/svg"
   xmlns:svg="http://www.w3.org/2000/svg"
   xmlns:rdf="http://www.w3.org/1999/02/22-rdf-syntax-ns#"
   xmlns:cc="http://creativecommons.org/ns#"
   xmlns:dc="http://purl.org/dc/elements/1.1/"><title
     id="title15">PlasmaPuffs</title><sodipodi:namedview
     id="namedview1"
     pagecolor="#ffffff"
     bordercolor="#000000"
     borderopacity="0.25"
     inkscape:showpageshadow="false"
     inkscape:pageopacity="0.0"
     inkscape:pagecheckerboard="true"
     inkscape:deskcolor="#d1d1d1"
     inkscape:document-units="px"
     showborder="false"
     borderlayer="false"
     labelstyle="below"
     inkscape:zoom="1.1599987"
     inkscape:cx="145.68982"
     inkscape:cy="167.6726"
     inkscape:window-width="1920"
     inkscape:window-height="1094"
     inkscape:window-x="-11"
     inkscape:window-y="-11"
     inkscape:window-maximized="1"
     inkscape:current-layer="svg1"
     showgrid="false"
     showguides="true"><sodipodi:guide
       position="1034.4839,262.89656"
       orientation="0,-1"
       id="guide2"
       inkscape:locked="false" /></sodipodi:namedview><defs
     id="defs1"><inkscape:path-effect
       effect="simplify"
       id="path-effect13"
       is_visible="false"
       lpeversion="1.3"
       threshold="5"
       steps="1"
       smooth_angles="360"
       helper_size="10"
       simplify_individual_paths="true"
       simplify_just_coalesce="false" /></defs><g
     id="plasmapuffs"
     inkscape:label="PlasmaPuffs"
     inkscape:highlight-color="#fac800"
     style="display:none;opacity:0.5"
     transform="matrix(1.4331894,0,0,1.4331894,-15.199275,-14.687719)"
     sodipodi:insensitive="true"><path
       style="display:inline;fill:#fae196;fill-opacity:1;stroke:#000000;stroke-width:5.00001;stroke-dasharray:none;stroke-opacity:1"
       d="M 62.043764,178.88504 C 205.0061,221.04071 230.51525,66.087681 109.3633,15.984254 88.700042,7.4387605 65.340918,18.312675 46.820962,37.967059 8.2685932,78.880959 -9.3139625,157.84357 62.043764,178.88504 Z"
       id="path12"
       sodipodi:nodetypes="ssss"
       inkscape:label="Body" /><path
       style="display:inline;fill:none;fill-opacity:1;stroke:#000000;stroke-width:5.00001;stroke-linecap:round;stroke-dasharray:none;stroke-opacity:1"
       d="m 89.928278,157.13358 c 3.199264,8.53147 14.607872,15.16452 26.552722,-0.95607"
       id="path15"
       sodipodi:nodetypes="cc"
       inkscape:label="Mouth" /><path
       style="fill:#000000;fill-opacity:1;stroke:none;stroke-width:5.00001;stroke-dasharray:none;stroke-opacity:1"
       d="m 143.6466,16.528999 c -10.52343,7.184823 -10.62325,23.798343 -10.40113,43.14666 1.25416,12.210095 -4.37995,29.751416 9.45017,35.995324 17.05874,1.728533 13.62186,-64.768709 9.18227,-75.952244 -0.76861,-1.565182 -3.90222,-5.385802 -8.23131,-3.18974 z"
       id="path14"
       inkscape:label="Right Eye"
       sodipodi:nodetypes="sssss" /><path
       style="fill:#000000;fill-opacity:1;stroke:none;stroke-width:5.00001;stroke-dasharray:none;stroke-opacity:1"
       d="M 47.583635,24.909894 C 42.183887,36.607484 43.676955,67.373177 44.47508,79.071183 45.262055,97.867309 58.019238,96.76788 61.827008,88.75617 64.323543,83.503294 65.29254,71.323284 65.793026,52.440492 68.164988,7.3733368 52.858016,14.167166 47.583635,24.909894 Z"
       id="path13"
       sodipodi:nodetypes="sssss"
       inkscape:label="Left Eye" /></g><metadata
     id="metadata15"><rdf:RDF><cc:Work
         rdf:about=""><dc:title>PlasmaPuffs</dc:title></cc:Work></rdf:RDF></metadata><path
     id="rect1"
     style="opacity:0.902;fill:#000000;stroke:#000000;stroke-width:5.96738;stroke-linecap:round;stroke-linejoin:round;paint-order:markers fill stroke"
     d="m 18.25782,36.574963 c -5.54,0 -10.0000012,4.46 -10.0000012,10 0,0.860323 0.117857,1.690753 0.320313,2.486328 l -0.480469,-0.02344 C 9.7645378,71.5338 3.6415158,107.88227 32.763679,114.6648 94.334311,129.85239 99.467091,104.0895 108.1836,56.574961 h 20.92578 c 0.89404,22.575508 -3.07756,55.419249 24.45703,61.832029 62.74492,15.47725 66.87755,-11.57286 75.92187,-60.832029 l -20.97851,-1 h 31.9375 c 5.54,0 10,-4.46 10,-10 0,-5.54 -4.46,-10 -10,-10 z" /></svg>
