<?xml version="1.0" encoding="UTF-8" standalone="no"?>
<!-- Created with Inkscape (http://www.inkscape.org/) -->

<svg
   width="128.54041"
   height="256"
   viewBox="0 0 128.54041 256"
   version="1.1"
   id="svg1"
   xml:space="preserve"
   xmlns="http://www.w3.org/2000/svg"
   xmlns:svg="http://www.w3.org/2000/svg"
   xmlns:rdf="http://www.w3.org/1999/02/22-rdf-syntax-ns#"
   xmlns:cc="http://creativecommons.org/ns#"
   xmlns:dc="http://purl.org/dc/elements/1.1/"><title
     id="title15">PlasmaPuffs</title><defs
     id="defs1" /><g
     id="plasmapuffs"
     style="display:none"
     transform="matrix(1.4331894,0,0,1.4331894,-15.199275,-14.687719)"><path
       style="display:inline;fill:#fae196;fill-opacity:1;stroke:#000000;stroke-width:5.00004;stroke-dasharray:none;stroke-opacity:1"
       d="M 62.043764,178.88504 C 205.0061,221.04071 230.51525,66.087681 109.3633,15.984254 88.700042,7.4387605 65.340918,18.312675 46.820962,37.967059 8.2685932,78.880959 -9.3139625,157.84357 62.043764,178.88504 Z"
       id="path12" /><path
       style="display:inline;fill:none;fill-opacity:1;stroke:#000000;stroke-width:5.00001;stroke-linecap:round;stroke-dasharray:none;stroke-opacity:1"
       d="m 89.928278,157.13358 c 3.199264,8.53147 14.607872,15.16452 26.552722,-0.95607"
       id="path15" /><path
       style="fill:#000000;fill-opacity:1;stroke:none;stroke-width:5.00001;stroke-dasharray:none;stroke-opacity:1"
       d="m 143.6466,16.528999 c -10.52343,7.184823 -10.62325,23.798343 -10.40113,43.14666 1.25416,12.210095 -4.37995,29.751416 9.45017,35.995324 17.05874,1.728533 13.62186,-64.768709 9.18227,-75.952244 -0.76861,-1.565182 -3.90222,-5.385802 -8.23131,-3.18974 z"
       id="path14" /><path
       style="fill:#000000;fill-opacity:1;stroke:none;stroke-width:5.00001;stroke-dasharray:none;stroke-opacity:1"
       d="M 47.583635,24.909894 C 42.183887,36.607484 43.676955,67.373177 44.47508,79.071183 45.262055,97.867309 58.019238,96.76788 61.827008,88.75617 64.323543,83.503294 65.29254,71.323284 65.793026,52.440492 68.164988,7.3733368 52.858016,14.167166 47.583635,24.909894 Z"
       id="path13" /></g><metadata
     id="metadata15"><rdf:RDF><cc:Work
         rdf:about=""><dc:title>PlasmaPuffs</dc:title></cc:Work></rdf:RDF></metadata><g
     id="layer1"
     style="display:inline"
     transform="translate(-1.9974959e-8,-4.4672653)"><path
       id="rect4"
       style="fill:#b3b3b3;fill-opacity:1;stroke:#333333;stroke-width:8;stroke-linecap:round;stroke-dasharray:none;stroke-opacity:1"
       d="M 63.716071,8.467362 C 63.594619,8.465802 63.480146,8.513598 63.410582,8.5949151 L 45.759208,29.703858 80.747657,29.635545 64.016966,8.6024181 C 63.950396,8.5193492 63.837626,8.4687319 63.716071,8.467362 Z M 44.256652,32.871267 c -1.628784,0 -2.940044,1.070846 -2.940044,2.400999 V 169.52375 c 0,1.33015 1.31126,2.40101 2.940044,2.40101 h 37.536097 c 1.628785,0 2.940044,-1.07086 2.940044,-2.40101 V 35.272266 c 0,-1.330153 -1.311259,-2.400999 -2.940044,-2.400999 z" /><path
       style="fill:#b3b3b3;fill-opacity:1;stroke:none;stroke-width:5;stroke-linecap:round;stroke-dasharray:none;stroke-opacity:1"
       d="M 45.44373,37.97975 80.567409,37.465978 63.751047,11.199029 Z"
       id="path4-2" /><path
       style="fill:#e6e6e6;fill-opacity:1;stroke:none;stroke-width:2.5;stroke-linecap:round;stroke-dasharray:none;stroke-opacity:1"
       d="M 63.751995,11.187388 45.48463,37.482913 63.210046,40.866441 Z"
       id="path5" /><path
       style="fill:#999999;fill-opacity:1;stroke:none;stroke-width:2.5;stroke-linecap:round;stroke-dasharray:none;stroke-opacity:1"
       d="m 63.271794,40.774603 17.283974,-3.274145 0.01672,131.316832 -16.154655,2.76748 z"
       id="path7" /><path
       style="fill:#cccccc;fill-opacity:1;stroke:none;stroke-width:2.5;stroke-linecap:round;stroke-dasharray:none;stroke-opacity:1"
       d="m 45.419541,37.423772 17.795134,3.344092 1.193686,130.816866 -18.873644,-2.49709 z"
       id="path6" /></g><g
     id="layer4"
     style="display:inline;opacity:1"><rect
       style="fill:#aa4400;fill-opacity:1;stroke:#2b1100;stroke-width:8;stroke-linecap:round;stroke-dasharray:none"
       id="rect3"
       width="23.520355"
       height="51.692997"
       x="52.331142"
       y="184.73729"
       rx="2.5"
       ry="2.5" /><path
       style="display:inline;opacity:1;fill:#803300;fill-opacity:1;stroke:none;stroke-width:2.5;stroke-linecap:round;stroke-linejoin:bevel;stroke-dasharray:none;stroke-opacity:1;paint-order:markers fill stroke"
       d="m 64.220892,188.34137 7.754872,0.0196 -0.2715,47.66405 -7.777607,0.12093 z"
       id="path10" /><rect
       style="display:inline;opacity:1;fill:#aa4400;fill-opacity:1;stroke:none;stroke-width:7.166;stroke-linecap:round;stroke-linejoin:bevel;stroke-dasharray:none;stroke-opacity:1;paint-order:markers fill stroke"
       id="rect20"
       width="7.4081106"
       height="3.9196703"
       x="56.54142"
       y="232.25403" /><rect
       style="fill:#2b1100;fill-opacity:1;stroke:none;stroke-width:2.54253;stroke-linecap:round;stroke-linejoin:bevel;stroke-dasharray:none;stroke-opacity:1;paint-order:markers fill stroke"
       id="rect11-3"
       width="21.894447"
       height="1.9974335"
       x="55.130947"
       y="206.09497"
       transform="matrix(0.96683501,-0.25540176,0,1,0,0)" /><rect
       style="fill:#2b1100;fill-opacity:1;stroke:none;stroke-width:2.54253;stroke-linecap:round;stroke-linejoin:bevel;stroke-dasharray:none;stroke-opacity:1;paint-order:markers fill stroke"
       id="rect11-3-5"
       width="21.894447"
       height="1.9974335"
       x="54.872242"
       y="216.07567"
       transform="matrix(0.96683501,-0.25540176,0,1,0,0)" /><rect
       style="fill:#2b1100;fill-opacity:1;stroke:none;stroke-width:2.54253;stroke-linecap:round;stroke-linejoin:bevel;stroke-dasharray:none;stroke-opacity:1;paint-order:markers fill stroke"
       id="rect11-3-5-0"
       width="21.894447"
       height="1.9974335"
       x="56.129456"
       y="226.23674"
       transform="matrix(0.96683501,-0.25540176,0,1,0,0)" /><rect
       style="fill:#2b1100;fill-opacity:1;stroke:none;stroke-width:2.54253;stroke-linecap:round;stroke-linejoin:bevel;stroke-dasharray:none;stroke-opacity:1;paint-order:markers fill stroke"
       id="rect11-3-5-0-5"
       width="21.894447"
       height="1.9974335"
       x="56.984985"
       y="236.33249"
       transform="matrix(0.96683501,-0.25540176,0,1,0,0)" /><ellipse
       style="display:inline;opacity:1;fill:#fac800;fill-opacity:1;stroke:#2b1100;stroke-width:8;stroke-linecap:round;stroke-dasharray:none"
       id="path3"
       cx="64.481506"
       cy="242.01283"
       rx="17.640266"
       ry="9.9871674" /><rect
       style="fill:#2b1100;fill-opacity:1;stroke:none;stroke-width:2.54253;stroke-linecap:round;stroke-linejoin:bevel;stroke-dasharray:none;stroke-opacity:1;paint-order:markers fill stroke"
       id="rect11-3-5-0-5-6"
       width="21.894447"
       height="1.9974335"
       x="57.343544"
       y="246.21931"
       transform="matrix(0.96683501,-0.25540176,0,1,0,0)" /></g><ellipse
     style="display:none;opacity:0.5;fill:#fae196;stroke:#000000;stroke-width:5.77297;stroke-linecap:round"
     id="path1"
     cx="63.590527"
     cy="207.96016"
     rx="29.422155"
     ry="30.233614" /><g
     id="layer2"
     style="display:inline;opacity:1"
     transform="translate(0.13192289,2.9023043)"><g
       id="layer3"><path
         id="rect1"
         style="fill:#fac800;fill-opacity:1;stroke:#2b1100;stroke-width:8;stroke-linecap:round;stroke-dasharray:none"
         d="m 115.75925,151.7246 c -0.19629,-7.5e-4 -0.39654,0.0276 -0.59677,0.0841 L 64.319531,166.1302 13.621744,154.97218 c -1.614145,-0.35529 -3.117597,1.18095 -3.370946,3.44468 l -1.2810948,11.43916 c -0.253349,2.26375 0.842058,4.37224 2.4562028,4.72754 l 52.446623,11.5458 c 0.447489,0.0985 0.886421,0.0511 1.292617,-0.1163 0.242102,0.0174 0.490537,-0.006 0.739626,-0.0776 l 52.484518,-12.19151 c 1.48555,-0.53309 0.21592,-4.80637 0.70866,-6.94383 l -0.46316,-11.75039 c -0.28155,-1.96576 -1.50157,-3.32007 -2.87554,-3.32511 z" /><path
         style="fill:#fac800;fill-opacity:1;stroke:#2b1100;stroke-width:5.73526;stroke-linecap:round;stroke-dasharray:none;stroke-opacity:1"
         d="m 110.85639,174.44862 5.24252,-16.58706 a 0.16465534,0.16465534 37.485296 0 0 -0.24564,-0.18838 l -12.29666,7.85471 z"
         id="path8"
         transform="matrix(1.1760177,0,0,1.6544772,-11.490601,-121.76792)" /><path
         style="fill:#fac800;fill-opacity:1;stroke:none;stroke-width:2.5;stroke-linecap:round;stroke-linejoin:bevel;stroke-dasharray:none;stroke-opacity:1;paint-order:markers fill stroke"
         d="m 115.77042,153.35341 -7.26954,4.32198 5.6515,12.68572 3.33568,-14.56918 z"
         id="path9" /><path
         style="fill:#fac800;fill-opacity:1;stroke:#2b1100;stroke-width:5.81105;stroke-linecap:round;stroke-dasharray:none;stroke-opacity:1"
         d="m 16.279901,175.11173 -5.291287,-15.20484 a 0.27309497,0.27309497 140.42832 0 1 0.394654,-0.32616 l 11.929921,6.90011 z"
         id="path8-1"
         transform="matrix(1.222725,0,0,1.5500339,-10.016033,-103.23991)" /><path
         style="fill:#fac800;fill-opacity:1;stroke:none;stroke-width:2.5;stroke-linecap:round;stroke-linejoin:bevel;stroke-dasharray:none;stroke-opacity:1;paint-order:markers fill stroke"
         d="m 13.328952,156.49451 6.963148,3.6811 -9.109677,-0.82125 z"
         id="path9-6" /></g><path
       style="fill:#ffe680;fill-opacity:1;stroke:none;stroke-width:2.5;stroke-linecap:round;stroke-linejoin:bevel;stroke-dasharray:none;stroke-opacity:1;paint-order:markers fill stroke"
       d="M 9.5249702,153.69685 13.735943,170.94482 64.23672,170.22089 20.139375,160.03688 Z"
       id="path16" /><path
       style="display:inline;fill:#d4aa00;fill-opacity:1;stroke:none;stroke-width:2.5;stroke-linecap:round;stroke-linejoin:bevel;stroke-dasharray:none;stroke-opacity:1;paint-order:markers fill stroke"
       d="m 64.310196,170.15488 -0.04957,12.14372 50.367444,-11.80629 z"
       id="path17" /></g></svg>
