<?xml version="1.0" encoding="UTF-8" standalone="no"?>
<!-- Created with Inkscape (http://www.inkscape.org/) -->

<svg
   width="256"
   height="256"
   viewBox="0 0 256 256"
   version="1.1"
   id="svg1"
   inkscape:version="1.4.3 (0d15f75, 2025-12-25)"
   sodipodi:docname="wizrard_hat.svg"
   xml:space="preserve"
   inkscape:export-filename="PlasmaPuffs-Halloween2025.png"
   inkscape:export-xdpi="768"
   inkscape:export-ydpi="768"
   xmlns:inkscape="http://www.inkscape.org/namespaces/inkscape"
   xmlns:sodipodi="http://sodipodi.sourceforge.net/DTD/sodipodi-0.dtd"
   xmlns:xlink="http://www.w3.org/1999/xlink"
   xmlns="http://www.w3.org/2000/svg"
   xmlns:svg="http://www.w3.org/2000/svg"
   xmlns:rdf="http://www.w3.org/1999/02/22-rdf-syntax-ns#"
   xmlns:cc="http://creativecommons.org/ns#"
   xmlns:dc="http://purl.org/dc/elements/1.1/"><title
     id="title1">PlasmaPuffs Halloween 2025</title><sodipodi:namedview
     id="namedview1"
     pagecolor="#ffffff"
     bordercolor="#000000"
     borderopacity="0.25"
     inkscape:showpageshadow="false"
     inkscape:pageopacity="0.0"
     inkscape:pagecheckerboard="true"
     inkscape:deskcolor="#d1d1d1"
     inkscape:document-units="px"
     inkscape:lockguides="true"
     showborder="false"
     borderlayer="false"
     labelstyle="default"
     inkscape:zoom="1.2525393"
     inkscape:cx="156.48212"
     inkscape:cy="82.632138"
     inkscape:window-width="1920"
     inkscape:window-height="1094"
     inkscape:window-x="-11"
     inkscape:window-y="-11"
     inkscape:window-maximized="1"
     inkscape:current-layer="svg1" /><defs
     id="defs1"><rect
       x="5055.8135"
       y="1440.7301"
       width="137.44002"
       height="23.85977"
       id="rect94" /><inkscape:path-effect
       effect="simplify"
       id="path-effect13"
       is_visible="false"
       lpeversion="1.3"
       threshold="5"
       steps="1"
       smooth_angles="360"
       helper_size="10"
       simplify_individual_paths="true"
       simplify_just_coalesce="false" /><filter
       style="color-interpolation-filters:sRGB"
       inkscape:label="Drop Shadow"
       id="filter36"
       x="-1.4830484"
       y="-1.6484992"
       width="3.9660967"
       height="4.2969983"><feFlood
         result="flood"
         in="SourceGraphic"
         flood-opacity="0.498039"
         flood-color="rgb(255,255,0)"
         id="feFlood35" /><feGaussianBlur
         result="blur"
         in="SourceGraphic"
         stdDeviation="100.000000"
         id="feGaussianBlur35" /><feOffset
         result="offset"
         in="blur"
         dx="0.000000"
         dy="0.000000"
         id="feOffset35" /><feComposite
         result="comp1"
         operator="in"
         in="offset"
         in2="flood"
         id="feComposite35" /><feComposite
         result="comp2"
         operator="over"
         in="SourceGraphic"
         in2="comp1"
         id="feComposite36" /></filter><filter
       style="color-interpolation-filters:sRGB"
       inkscape:label="Drop Shadow"
       id="filter59"
       x="-2.1969624"
       y="-2.3872716"
       width="5.3939247"
       height="5.7745433"><feFlood
         result="flood"
         in="SourceGraphic"
         flood-opacity="0.501961"
         flood-color="rgb(255,255,0)"
         id="feFlood58" /><feGaussianBlur
         result="blur"
         in="SourceGraphic"
         stdDeviation="50.000000"
         id="feGaussianBlur58" /><feOffset
         result="offset"
         in="blur"
         dx="0.000000"
         dy="0.000000"
         id="feOffset58" /><feComposite
         result="comp1"
         operator="in"
         in="flood"
         in2="offset"
         id="feComposite58" /><feComposite
         result="fbSourceGraphic"
         operator="over"
         in="SourceGraphic"
         in2="comp1"
         id="feComposite59" /><feColorMatrix
         result="fbSourceGraphicAlpha"
         in="fbSourceGraphic"
         values="0 0 0 -1 0 0 0 0 -1 0 0 0 0 -1 0 0 0 0 1 0"
         id="feColorMatrix61" /><feFlood
         id="feFlood61"
         result="flood"
         in="fbSourceGraphic"
         flood-opacity="0.501961"
         flood-color="rgb(255,255,0)" /><feGaussianBlur
         id="feGaussianBlur61"
         result="blur"
         in="fbSourceGraphic"
         stdDeviation="100.000000" /><feOffset
         id="feOffset61"
         result="offset"
         in="blur"
         dx="0.000000"
         dy="0.000000" /><feComposite
         id="feComposite61"
         result="comp1"
         operator="in"
         in="flood"
         in2="offset" /><feComposite
         id="feComposite62"
         result="comp2"
         operator="over"
         in="fbSourceGraphic"
         in2="comp1" /></filter><filter
       style="color-interpolation-filters:sRGB"
       inkscape:label="Drop Shadow"
       id="filter64"
       x="-1.4841917"
       y="-1.6488795"
       width="3.9683833"
       height="4.2977591"><feFlood
         result="flood"
         in="SourceGraphic"
         flood-opacity="0.501961"
         flood-color="rgb(255,255,0)"
         id="feFlood62" /><feGaussianBlur
         result="blur"
         in="SourceGraphic"
         stdDeviation="100.000000"
         id="feGaussianBlur62" /><feOffset
         result="offset"
         in="blur"
         dx="0.000000"
         dy="0.000000"
         id="feOffset62" /><feComposite
         result="comp1"
         operator="in"
         in="flood"
         in2="offset"
         id="feComposite63" /><feComposite
         result="comp2"
         operator="over"
         in="SourceGraphic"
         in2="comp1"
         id="feComposite64" /></filter><filter
       style="color-interpolation-filters:sRGB"
       inkscape:label="Drop Shadow"
       id="filter66"
       x="-9.2964773"
       y="-12.170855"
       width="19.592955"
       height="25.341711"><feFlood
         result="flood"
         in="SourceGraphic"
         flood-opacity="0.501961"
         flood-color="rgb(255,255,0)"
         id="feFlood64" /><feGaussianBlur
         result="blur"
         in="SourceGraphic"
         stdDeviation="100.000000"
         id="feGaussianBlur64" /><feOffset
         result="offset"
         in="blur"
         dx="0.000000"
         dy="0.000000"
         id="feOffset64" /><feComposite
         result="comp1"
         operator="in"
         in="flood"
         in2="offset"
         id="feComposite65" /><feComposite
         result="fbSourceGraphic"
         operator="over"
         in="SourceGraphic"
         in2="comp1"
         id="feComposite66" /><feColorMatrix
         result="fbSourceGraphicAlpha"
         in="fbSourceGraphic"
         values="0 0 0 -1 0 0 0 0 -1 0 0 0 0 -1 0 0 0 0 1 0"
         id="feColorMatrix66" /><feFlood
         id="feFlood66"
         result="flood"
         in="fbSourceGraphic"
         flood-opacity="0.501961"
         flood-color="rgb(255,255,0)" /><feGaussianBlur
         id="feGaussianBlur66"
         result="blur"
         in="fbSourceGraphic"
         stdDeviation="100.000000" /><feOffset
         id="feOffset66"
         result="offset"
         in="blur"
         dx="0.000000"
         dy="0.000000" /><feComposite
         id="feComposite67"
         result="comp1"
         operator="in"
         in="flood"
         in2="offset" /><feComposite
         id="feComposite68"
         result="comp2"
         operator="over"
         in="fbSourceGraphic"
         in2="comp1" /></filter><filter
       style="color-interpolation-filters:sRGB"
       inkscape:label="Drop Shadow"
       id="filter70"
       x="-0.84530822"
       y="-2.2947615"
       width="2.6906164"
       height="5.589523"><feFlood
         result="flood"
         in="SourceGraphic"
         flood-opacity="0.501961"
         flood-color="rgb(255,255,0)"
         id="feFlood68" /><feGaussianBlur
         result="blur"
         in="SourceGraphic"
         stdDeviation="100.000000"
         id="feGaussianBlur68" /><feOffset
         result="offset"
         in="blur"
         dx="0.000000"
         dy="0.000000"
         id="feOffset68" /><feComposite
         result="comp1"
         operator="in"
         in="flood"
         in2="offset"
         id="feComposite69" /><feComposite
         result="comp2"
         operator="over"
         in="SourceGraphic"
         in2="comp1"
         id="feComposite70" /></filter><filter
       style="color-interpolation-filters:sRGB"
       inkscape:label="Drop Shadow"
       id="filter72"
       x="-0.71836305"
       y="-0.93308109"
       width="2.4367273"
       height="2.8660939"><feFlood
         result="flood"
         in="SourceGraphic"
         flood-opacity="0.501961"
         flood-color="rgb(250,200,0)"
         id="feFlood70" /><feGaussianBlur
         result="blur"
         in="SourceGraphic"
         stdDeviation="50.000000"
         id="feGaussianBlur70" /><feOffset
         result="offset"
         in="blur"
         dx="0.000000"
         dy="0.000000"
         id="feOffset70" /><feComposite
         result="comp1"
         operator="in"
         in="flood"
         in2="offset"
         id="feComposite71" /><feComposite
         result="comp2"
         operator="over"
         in="SourceGraphic"
         in2="comp1"
         id="feComposite72" /></filter><filter
       style="color-interpolation-filters:sRGB"
       inkscape:label="Drop Shadow"
       id="filter90"
       x="-1.0194552"
       y="-1.4316208"
       width="3.0389104"
       height="3.8632417"><feFlood
         result="flood"
         in="SourceGraphic"
         flood-opacity="0.501961"
         flood-color="rgb(255,0,0)"
         id="feFlood89" /><feGaussianBlur
         result="blur"
         in="SourceGraphic"
         stdDeviation="25.000000"
         id="feGaussianBlur89" /><feOffset
         result="offset"
         in="blur"
         dx="0.000000"
         dy="0.000000"
         id="feOffset89" /><feComposite
         result="comp1"
         operator="in"
         in="flood"
         in2="offset"
         id="feComposite89" /><feComposite
         result="fbSourceGraphic"
         operator="over"
         in="SourceGraphic"
         in2="comp1"
         id="feComposite90" /><feColorMatrix
         result="fbSourceGraphicAlpha"
         in="fbSourceGraphic"
         values="0 0 0 -1 0 0 0 0 -1 0 0 0 0 -1 0 0 0 0 1 0"
         id="feColorMatrix90" /><feFlood
         id="feFlood90"
         result="flood"
         in="fbSourceGraphic"
         flood-opacity="0.501961"
         flood-color="rgb(255,0,0)" /><feGaussianBlur
         id="feGaussianBlur90"
         result="blur"
         in="fbSourceGraphic"
         stdDeviation="50.000000" /><feOffset
         id="feOffset90"
         result="offset"
         in="blur"
         dx="0.000000"
         dy="0.000000" /><feComposite
         id="feComposite91"
         result="comp1"
         operator="in"
         in="flood"
         in2="offset" /><feComposite
         id="feComposite92"
         result="comp2"
         operator="over"
         in="fbSourceGraphic"
         in2="comp1" /></filter><filter
       style="color-interpolation-filters:sRGB"
       inkscape:label="Drop Shadow"
       id="filter94"
       x="-0.69219601"
       y="-0.77933389"
       width="2.384392"
       height="2.5586677"><feFlood
         result="flood"
         in="SourceGraphic"
         flood-opacity="0.501961"
         flood-color="rgb(255,0,0)"
         id="feFlood92" /><feGaussianBlur
         result="blur"
         in="SourceGraphic"
         stdDeviation="50.000000"
         id="feGaussianBlur92" /><feOffset
         result="offset"
         in="blur"
         dx="0.000000"
         dy="0.000000"
         id="feOffset92" /><feComposite
         result="comp1"
         operator="in"
         in="flood"
         in2="offset"
         id="feComposite93" /><feComposite
         result="comp2"
         operator="over"
         in="SourceGraphic"
         in2="comp1"
         id="feComposite94" /></filter></defs><g
     id="layer8"
     inkscape:label="Aura"
     transform="matrix(3.7795462,0,0,3.7795462,-0.48397349,2.333431)"
     sodipodi:insensitive="true"
     style="display:none"><path
       id="path94"
       style="opacity:1;mix-blend-mode:normal;fill:#4b0064;fill-opacity:0.5;fill-rule:nonzero;stroke:none;stroke-width:2.93661;stroke-linecap:round;stroke-dasharray:none;stroke-opacity:1"
       inkscape:label="D"
       d="M 30.678279,2.3205739 A 10.452125,10.065401 0 0 0 20.226149,12.38597 10.452125,10.065401 0 0 0 20.230949,12.691573 19.424097,19.733475 0 0 0 2.5890183,32.341804 19.424097,19.733475 0 0 0 22.013103,52.075287 19.424097,19.733475 0 0 0 41.437204,32.341804 19.424097,19.733475 0 0 0 37.30307,20.171321 10.452125,10.065401 0 0 0 41.13037,12.38597 10.452125,10.065401 0 0 0 30.678259,2.3205739 Z" /><ellipse
       style="mix-blend-mode:color;fill:#4b0064;fill-opacity:0.5;fill-rule:nonzero;stroke:none;stroke-width:0.552638;stroke-linecap:round;stroke-dasharray:none;stroke-opacity:1"
       id="path94-2-4"
       cx="14.509368"
       cy="8.0595503"
       inkscape:label="B"
       rx="3.7231445"
       ry="3.6457996" /><ellipse
       style="mix-blend-mode:color;fill:#4b0064;fill-opacity:0.5;fill-rule:nonzero;stroke:none;stroke-width:0.552715;stroke-linecap:round;stroke-dasharray:none;stroke-opacity:1"
       id="path94-2-4-8"
       cx="43.66787"
       cy="15.709415"
       inkscape:label="B"
       rx="3.7231445"
       ry="3.6457996" /></g><g
     id="layer4"
     inkscape:label="Ghost"
     inkscape:highlight-color="#ffffff"
     transform="matrix(3.5989894,1.154229,-1.154229,3.5989894,1483.3529,-1511.3791)"
     sodipodi:insensitive="true"
     style="display:none"><path
       style="opacity:1;fill:#ffffff;fill-opacity:0.5;stroke:#000000;stroke-width:1.32292;stroke-linecap:round;stroke-dasharray:none;stroke-opacity:1"
       d="m -187.92952,526.91625 c 2.10703,-1.26422 11.96769,-23.05139 -1.2032,-31.28319 -3.77214,-2.35759 -8.98126,-4.65177 -14.96654,11.80774"
       id="path72"
       inkscape:label="Body"
       sodipodi:nodetypes="csc" /><path
       style="opacity:1;fill:#000000;fill-opacity:1;stroke:none;stroke-width:1.32292;stroke-linecap:round;stroke-dasharray:none;stroke-opacity:1"
       d="m -190.69141,519.45094 c 3.16913,-7.57236 -2.88819,-17.86047 -6.20742,-7.90283"
       id="path75"
       inkscape:label="Mouth"
       sodipodi:nodetypes="cc" /><path
       style="opacity:1;fill:#000000;fill-opacity:1;stroke:none;stroke-width:1.32292;stroke-linecap:round;stroke-dasharray:none;stroke-opacity:1"
       d="m -190.9946,492.81781 c 0.77067,1.38471 -2.17343,13.02736 -4.45006,10.47986 -2.96171,-3.51703 4.26771,-16.87788 4.64148,-9.05789"
       id="path74"
       inkscape:label="Right Eye"
       sodipodi:nodetypes="csc" /><path
       style="opacity:1;fill:#000000;fill-opacity:1;stroke:none;stroke-width:1.32292;stroke-linecap:round;stroke-dasharray:none;stroke-opacity:1"
       d="m -182.27298,499.01177 c -0.54557,11.26662 -8.77588,11.91348 -3.09319,-0.0645 1.87419,-3.50337 5.19298,-3.55846 1.43869,5.87344"
       id="path73"
       sodipodi:nodetypes="csc"
       inkscape:label="Left Eye" /></g><g
     id="layer2"
     inkscape:label="PlasmaPuffs"
     inkscape:highlight-color="#ffff00"
     style="display:none;opacity:1"
     transform="matrix(3.7795462,0,0,3.7795462,-0.48397349,2.333431)"
     sodipodi:insensitive="true"><path
       style="display:inline;fill:#fae196;fill-opacity:1;stroke:#000000;stroke-width:1.32292;stroke-dasharray:none;stroke-opacity:1"
       d="M 23.709869,60.310007 C 61.535226,71.463677 68.284502,30.465778 36.229794,17.209275 30.762651,14.94829 24.582233,17.825344 19.682178,23.025551 9.4818823,33.850662 4.8298443,54.742807 23.709869,60.310007 Z"
       id="path12"
       sodipodi:nodetypes="ssss"
       inkscape:label="Body" /><path
       style="display:inline;fill:none;fill-opacity:1;stroke:#000000;stroke-width:1.31258;stroke-linecap:round;stroke-dasharray:none;stroke-opacity:1"
       d="m 31.087622,54.554957 c 0.846479,2.25727 3.864992,4.01226 7.025394,-0.25297"
       id="path15"
       sodipodi:nodetypes="cc"
       inkscape:label="Mouth" /><path
       id="path14"
       style="fill:#000000;fill-opacity:1;stroke:none;stroke-width:1.32292;stroke-dasharray:none;stroke-opacity:1"
       inkscape:label="Right Eye"
       d="m 42.54861,28.769258 c 0.331824,3.230582 -1.158865,7.87172 2.500349,9.523751 2.99506,0.303481 3.602212,-7.341879 3.328521,-13.384876 -0.004,-0.0031 -0.0081,-0.0063 -0.01198,-0.0096 -1.528716,-1.645884 -3.384878,-2.89914 -5.184048,-4.233143 -0.01632,-0.01203 -0.668569,4.992005 -0.632843,8.103856 z"
       sodipodi:nodetypes="ccccsc" /><path
       id="path13"
       style="fill:#000000;fill-opacity:1;stroke:none;stroke-width:1.32292;stroke-dasharray:none;stroke-opacity:1"
       inkscape:label="Left Eye"
       d="m 24.109476,19.212829 c -1.010146,0.540419 -2.53397,2.371436 -5.093568,4.448163 -0.330887,3.61505 -0.09935,8.115746 0.04558,10.239997 0.208216,4.973128 3.583559,4.682235 4.591026,2.562473 0.660544,-1.38982 0.916922,-4.612426 1.049348,-9.608487 0.200588,-3.811185 -0.07668,-6.220591 -0.592388,-7.642146 z"
       sodipodi:nodetypes="cccscc" /></g><g
     id="layer1-8"
     inkscape:label="Wizard Hat"
     style="display:inline;opacity:1"
     inkscape:highlight-color="#ff00ff"
     transform="matrix(5.6749476,0,0,6.0260944,-61.402347,32.722304)"><path
       style="fill:#4b0064;fill-opacity:1;stroke:#190019;stroke-width:1.32292;stroke-linecap:round;stroke-dasharray:none;stroke-opacity:1"
       d="m 20.309434,21.97874 c -20.97715561,4.493679 6.836904,5.60366 14.783029,5.448045 20.283405,-0.397226 26.635234,-6.826629 9.937254,-5.394021"
       id="path1"
       sodipodi:nodetypes="csc"
       inkscape:label="Bottom" /><path
       style="fill:#4b0064;fill-opacity:1;stroke:#190019;stroke-width:1.32292;stroke-linecap:round;stroke-dasharray:none;stroke-opacity:1"
       d="m 20.347473,22.04387 c 1.67057,-8.916942 5.543771,-28.8290121 29.587056,-15.6548411 0.0014,6.85e-4 -0.770784,-0.008 -1.624237,0.07735 -7.619461,0.761946 -6.242946,6.1853001 -3.421125,15.5946531"
       id="path2"
       sodipodi:nodetypes="cssc"
       inkscape:label="Top" /><path
       style="fill:#190019;fill-opacity:1;stroke:#190019;stroke-width:1.32292;stroke-linecap:round;stroke-dasharray:none;stroke-opacity:1"
       d="m 20.692114,21.997772 c 4.288316,0.261478 31.178256,3.423544 23.810536,-2.974564 -0.25691,-0.2231 -3.211357,0.01294 -7.105263,0.135631 -4.74912,0.149636 -10.895683,0.130662 -15.250208,-1.095538 -1.833863,-0.516401 -1.826137,2.741458 -1.455065,3.934471 z"
       id="path4"
       sodipodi:nodetypes="csssc"
       inkscape:label="Belt" /><path
       style="fill:none;fill-opacity:1;stroke:#fac800;stroke-width:40;stroke-linecap:round;stroke-dasharray:none;stroke-opacity:1"
       d="m 1004.9845,733.60228 c 18.4861,-0.70578 159.5785,7.74199 169.3672,-12.55616 8.2002,-17.00412 8.448,-127.27101 -15.154,-130.50143 -38.2103,-5.22985 -122.7048,-11.64559 -160.18533,4.10923 -20.58462,8.65269 -19.89179,139.93587 5.97213,138.94836 z"
       id="path5"
       sodipodi:nodetypes="sssss"
       inkscape:label="Knob"
       transform="matrix(0.03307292,0,0,0.03307292,0.66602139,-0.68433208)" /><path
       style="fill:none;fill-opacity:1;stroke:#fac800;stroke-width:1.32292;stroke-linecap:round;stroke-dasharray:none;stroke-opacity:1"
       d="m 39.041677,21.164538 -1.454028,-0.02148"
       id="path6"
       sodipodi:nodetypes="cc"
       inkscape:label="Handle" /><path
       style="fill:#190019;fill-opacity:1;stroke:none;stroke-width:1.31258;stroke-linecap:round;stroke-opacity:1"
       d="m 50.155466,5.7658619 c 1.656626,0.762563 1.781602,2.58956 1.927738,2.735707 0.0025,0.0026 0.01084,0.0036 0.01084,0 -0.166651,0.0119 -0.882971,-1.663622 -3.405399,-1.45326"
       id="path8"
       sodipodi:nodetypes="cssc"
       inkscape:label="Tip" /></g><g
     id="layer3"
     inkscape:label="Pumpkin"
     inkscape:highlight-color="#ff7d00"
     style="display:none"
     transform="matrix(-3.7795462,0,0,3.7795462,7602.4058,232.14426)"
     sodipodi:insensitive="true"><path
       style="fill:#fa6400;fill-opacity:1;stroke:#321900;stroke-width:1.32292;stroke-linecap:round;stroke-dasharray:none;stroke-opacity:1"
       d="m 1950.0718,-6.5913601 c 2.8452,-13.7886279 24.6571,-6.3794969 20.362,4.223438 -3.9321,9.706944 -22.6808,7.013764 -20.362,-4.223438 z"
       id="path10"
       sodipodi:nodetypes="sss"
       inkscape:label="Body" /><path
       style="display:inline;fill:none;fill-opacity:1;stroke:#321900;stroke-width:1.32292;stroke-linecap:round;stroke-dasharray:none;stroke-opacity:0.25"
       d="m 1957.263,-10.979031 c -1.2182,-2.298915 -2.3899,-2.546251 -4.4275,-0.729254"
       id="path18"
       sodipodi:nodetypes="cc"
       inkscape:label="Stripe 1" /><path
       style="fill:none;fill-opacity:1;stroke:#321900;stroke-width:1.32292;stroke-linecap:round;stroke-dasharray:none;stroke-opacity:0.35"
       d="m 1957.3096,-10.807915 c -2.2884,0.581597 -6.0218,6.9696999 -4.4987,11.9019799"
       id="path17"
       sodipodi:nodetypes="cc"
       inkscape:label="Stripe 2" /><path
       style="fill:none;fill-opacity:1;stroke:#321900;stroke-width:1.32292;stroke-linecap:round;stroke-dasharray:none;stroke-opacity:0.35"
       d="m 1959.1208,-10.052655 c -1.2981,4.3266979 -1.6056,9.34556892 -1.0519,13.2042689"
       id="path19"
       sodipodi:nodetypes="cc"
       inkscape:label="Stripe 3" /><path
       style="fill:none;fill-opacity:1;stroke:#321900;stroke-width:1.32292;stroke-linecap:round;stroke-dasharray:none;stroke-opacity:0.35"
       d="m 1961.4956,-10.660132 c 1.0575,0.8586919 2.4969,9.82907192 1.3154,14.0836349"
       id="path20"
       sodipodi:nodetypes="cc"
       inkscape:label="Stripe 4" /><path
       style="fill:none;fill-opacity:1;stroke:#321900;stroke-width:1.32292;stroke-linecap:round;stroke-dasharray:none;stroke-opacity:0.35"
       d="m 1962.594,-11.489214 c 5.9795,1.5045195 5.8971,9.3599029 4.8189,12.8126789"
       id="path21"
       sodipodi:nodetypes="cc"
       inkscape:label="Stripe 5" /><path
       style="fill:none;fill-opacity:1;stroke:#321900;stroke-width:1.32292;stroke-linecap:round;stroke-dasharray:none;stroke-opacity:0.35"
       d="m 1962.6091,-11.709165 c 0,-0.306203 0.5886,-1.386017 1.5098,-1.386017"
       id="path22"
       sodipodi:nodetypes="cc"
       inkscape:label="Stripe 6" /><path
       style="display:inline;fill:#964b00;fill-opacity:1;stroke:#321900;stroke-width:1.32292;stroke-linecap:round;stroke-dasharray:none;stroke-opacity:1"
       d="m 1957.5456,-10.923303 c 1.1422,1.4247809 2.6559,1.0987219 4.0069,0.492456 3.9737,-1.783282 -4.7745,-10.037793 -4.1626,-8.40957 0.9937,2.424493 2.52,5.775447 0.1557,7.917114 z"
       id="path16"
       sodipodi:nodetypes="cscc"
       inkscape:label="Stem" /><g
       id="g68"
       inkscape:label="Mouth"
       transform="matrix(0.03897863,0,0,0.04642539,1942.3499,-83.61559)"
       style="display:inline"><path
         style="display:inline;fill:#ffff00;fill-opacity:1;stroke:none;stroke-width:26.4583;stroke-linecap:round;stroke-dasharray:none;stroke-opacity:0.35"
         d="m 398.74745,1756.2092 c 2.54978,2.5497 2.08036,73.5142 36.83307,7.6005 18.05395,4.8876 46.17172,-2.8493 61.38849,-1.754 24.83281,55.4659 29.34073,30.1873 42.67959,-7.6005 26.49211,10.096 87.76521,-23.5523 102.31411,-31.5712 -8.60764,14.4708 -38.93801,101.5598 -60.80381,79.5127 -19.59502,-44.4066 -11.15695,18.8517 -25.14005,21.6321 -8.53338,3.597 -73.69138,16.5566 -76.00476,0.5847 -10.16218,-70.1612 -12.54144,-6.4702 -28.0633,4.6772 -84.49698,26.6914 -69.27546,-89.2496 -98.80621,-26.3094 -6.2186,13.254 -53.88481,-85.8099 -16.37024,-73.0815 40.57742,13.7676 56.93833,21.2742 61.97311,26.3094 z"
         id="path68-9"
         sodipodi:nodetypes="scsssscsssss"
         inkscape:label="Hole" /><path
         id="path68"
         style="opacity:1;fill:#ffc800;fill-opacity:1;stroke:none;stroke-width:26.4583;stroke-linecap:round;stroke-dasharray:none;stroke-opacity:0.35;filter:url(#filter70)"
         d="m 330.54261,1728.7621 c -25.52111,0.4856 16.67366,86.6271 22.49888,74.2115 2.27545,-4.8497 4.28562,-8.6371 6.09575,-11.5099 -8.98466,-8.1079 -26.07109,-43.8874 -25.91004,-62.4752 -0.96769,-0.1688 -1.86133,-0.242 -2.68459,-0.2264 z m 209.00325,25.6858 c -3.97257,11.2539 -7.16219,21.3984 -10.33838,28.6308 6.60449,1.3862 11.03937,-10.3589 16.79019,-27.0759 -2.32048,-0.2955 -4.4823,-0.8043 -6.45181,-1.5549 z m -104.06806,9.3545 c -3.52645,6.6884 -6.69014,11.967 -9.5312,16.0512 3.561,-1.7487 7.99099,-6.3813 13.53096,-15.1919 -1.3787,-0.2277 -2.71475,-0.5115 -3.99976,-0.8593 z m -57.25852,9.1095 c -2.84927,0.085 -6.07997,3.2681 -10.38179,11.0836 12.93734,1.037 18.54856,65.9661 84.01037,45.2876 2.78602,-2.0008 5.14866,-5.6944 7.20886,-10.003 -62.76832,17.4003 -67.82989,-46.7583 -80.83744,-46.3682 z m 203.24805,2.6469 c -2.99977,-0.074 -4.13342,7.8345 -5.59707,16.4052 1.47143,2.469 3.18199,5.8842 5.18573,10.4252 7.80476,7.8694 16.68818,1.8344 25.27701,-9.8398 -5.0062,3.2172 -9.91796,3.3505 -14.46372,-1.2329 -5.03028,-11.3998 -8.21292,-15.7039 -10.40195,-15.7577 z m -99.35775,5.4988 c -2.36517,0.038 -4.67216,7.3983 -7.63881,15.6931 1.60714,4.7442 3.36076,13.4964 5.44049,27.8552 2.31338,15.9719 67.47128,3.0125 76.00466,-0.5845 3.28309,-0.6528 5.33029,-4.6395 6.79442,-9.7839 -16.66288,4.5672 -69.89874,13.7049 -71.98578,-0.7043 -3.51369,-24.259 -6.09723,-32.5159 -8.61498,-32.4756 z"
         inkscape:label="Thickness" /></g><g
       id="g64"
       transform="matrix(0.03307292,0,0,0.03307292,1944.3252,-59.496524)"
       inkscape:label="Nose"
       style="display:inline"><path
         style="display:inline;opacity:1;fill:#ffff00;fill-opacity:1;stroke:none;stroke-width:26.4583;stroke-linecap:round;stroke-dasharray:none;stroke-opacity:0.35"
         d="m 461.5965,1688.8385 c 4.54064,7.7149 46.22637,5.4644 50.64289,-1.6537 3.253,-5.6921 -1.22391,-12.916 -21.4974,-30.179 -13.94265,-13.9559 -29.93034,29.1226 -29.14549,31.8327 z"
         id="path64-6-1"
         sodipodi:nodetypes="ssss"
         inkscape:label="Hole" /><path
         id="path64"
         style="opacity:1;fill:#ffc800;fill-opacity:1;stroke:none;stroke-width:26.4583;stroke-linecap:round;stroke-dasharray:none;stroke-opacity:0.35"
         d="m 484.69237,1654.1796 c -12.12931,0.2687 -23.79157,32.282 -23.11849,34.6062 4.54064,7.7149 46.22638,5.4644 50.6429,-1.6537 0.0442,-0.077 0.0868,-0.1551 0.12816,-0.233 -13.49973,3.62 -39.33385,3.6273 -42.8532,-2.3524 -0.52288,-1.8055 6.39882,-21.5289 15.20063,-30.3671 z"
         inkscape:label="Thickness" /></g><g
       id="g52"
       inkscape:label="Right Eye"
       transform="matrix(0.03307292,0,0,0.03307292,1944.5843,-60.270206)"
       style="display:inline"><path
         style="display:inline;fill:#ffff00;fill-opacity:1;stroke:none;stroke-width:31.8813;stroke-linecap:round;stroke-dasharray:none;stroke-opacity:0.35"
         d="m 556.40166,1587.5085 c 1.64328,-0.5469 1.05788,33.5786 39.19665,39.3561 43.01099,5.6447 18.67558,-55.4718 21.18764,-57.8065 5.01716,-4.6629 64.93063,-49.0555 66.96526,-22.6804 7.09348,137.6502 -108.95298,200.6539 -162.41076,73.772 -7.47822,-21.1382 23.83404,-28.904 35.06121,-32.6412 z"
         id="path51-2"
         sodipodi:nodetypes="ssssss"
         inkscape:label="Hole" /><path
         id="path51"
         style="opacity:1;fill:#ffc800;fill-opacity:1;stroke:none;stroke-width:31.8813;stroke-linecap:round;stroke-dasharray:none;stroke-opacity:0.35"
         d="m 628.37403,1560.1185 c -6.0482,4.2173 -10.47938,7.6743 -11.69386,8.803 -1.73648,1.6139 9.35589,31.3158 2.16369,47.638 24.86038,-5.8696 9.89324,-48.8657 9.53017,-56.441 z m -93.91881,35.5161 c -9.63111,5.0908 -17.3558,12.6905 -13.2209,24.3784 32.36356,76.8148 87.66718,84.034 124.69885,47.2276 -36.21458,24.7332 -83.76599,11.869 -112.82412,-57.1004 -2.04039,-5.7674 -1.193,-10.5393 1.34617,-14.5056 z"
         inkscape:label="Thickness" /></g><g
       id="g24"
       inkscape:label="Left Eye"
       style="display:inline;filter:url(#filter36)"
       transform="matrix(0.03366939,0,0,0.03394715,1943.8759,-60.331704)"><path
         style="display:inline;fill:#ffff00;fill-opacity:1;stroke:none;stroke-width:26.4583;stroke-linecap:round;stroke-dasharray:none;stroke-opacity:0.35"
         d="m 305.05656,1505.1782 c 33.71083,16.2701 20.5075,9.7941 50.40473,25.2285 6.41997,3.3143 -19.47427,39.6788 7.8678,58.6843 33.45685,22.0742 36.49278,-39.9448 54.50416,-29.1042 13.32803,8.0218 30.56804,11.923 27.51667,26.9876 -42.27358,140.9119 -222.04935,18.5476 -140.29336,-81.7962 z"
         id="path23-8"
         sodipodi:nodetypes="cssssc"
         inkscape:label="Hole" /><path
         id="path23"
         style="fill:#ffaf00;fill-opacity:1;stroke:none;stroke-width:26.4583;stroke-linecap:round;stroke-dasharray:none;stroke-opacity:0.35"
         d="m 304.93193,1505.2118 c -61.39221,75.3502 24.6882,163.1172 89.27878,142.4983 -60.7848,7.3286 -131.0208,-69.6715 -82.0415,-139.007 -2.14284,-1.0336 -4.53978,-2.1894 -7.23728,-3.4913 z m 108.81093,53.527 c -10.13769,-0.2688 -15.65668,23.9467 -28.21379,32.3473 17.22371,2.9872 24.21946,-20.8149 32.75511,-30.7232 -0.19267,-0.1133 -0.38454,-0.2275 -0.57568,-0.3426 -1.40586,-0.8461 -2.72067,-1.2485 -3.96564,-1.2815 z"
         sodipodi:nodetypes="ccccscccs"
         inkscape:label="Thickness" /></g><g
       inkscape:groupmode="layer"
       id="layer10"
       inkscape:label="Signature"
       transform="matrix(-1,0,0,1,1903.704,-18.968247)"><path
         style="display:none;opacity:0.5;fill:none;fill-opacity:1;fill-rule:nonzero;stroke:#000000;stroke-width:1.32292;stroke-linecap:round;stroke-dasharray:none;stroke-opacity:1"
         d="m -49.953457,19.424542 c 2.26888,-1.21626 3.40659,-4.870228 2.4557,-7.23172"
         id="path95"
         inkscape:label="Path"
         sodipodi:nodetypes="cc" /><text
         xml:space="preserve"
         id="text94"
         style="font-size:1.32292px;text-align:center;writing-mode:lr-tb;direction:ltr;text-anchor:middle;white-space:pre;display:inline;opacity:1;fill:#321900;fill-opacity:1;fill-rule:nonzero;stroke:none;stroke-width:150;stroke-linecap:round;stroke-dasharray:none;stroke-opacity:1"
         inkscape:label="Text"><textPath
           xlink:href="#path95"
           startOffset="50%"
           id="textPath96"
           style="font-style:normal;font-variant:normal;font-weight:bold;font-stretch:normal;font-size:1.32292px;font-family:Monospace;-inkscape-font-specification:'Monospace Bold';text-align:center;text-anchor:middle;fill:#321900;fill-opacity:1">PlasmaPuffs</textPath></text></g></g><g
     id="layer6"
     inkscape:label="Spider Web"
     inkscape:highlight-color="#ffffff"
     transform="matrix(3.7795462,0,0,3.7795462,-0.48397349,2.333431)"
     sodipodi:insensitive="true"
     style="display:none"><path
       style="opacity:1;fill:none;fill-opacity:1;fill-rule:nonzero;stroke:#ffffff;stroke-width:1.32292;stroke-linecap:round;stroke-dasharray:none;stroke-opacity:1"
       d="M 7.7043803,39.534861 C 4.5751743,49.750277 3.1166023,53.861007 0.00859239,64.053097"
       id="path78"
       sodipodi:nodetypes="cc"
       inkscape:label="Straight 1" /><path
       style="opacity:1;fill:none;fill-opacity:1;fill-rule:nonzero;stroke:#ffffff;stroke-width:1.32292;stroke-linecap:round;stroke-dasharray:none;stroke-opacity:1"
       d="M 25.033456,42.138037 C 18.278122,50.530767 5.7243323,60.971547 0.58867739,67.610947"
       id="path79"
       sodipodi:nodetypes="cc"
       inkscape:label="Straight 2" /><path
       style="opacity:1;fill:none;fill-opacity:1;fill-rule:nonzero;stroke:#ffffff;stroke-width:1.32292;stroke-linecap:round;stroke-dasharray:none;stroke-opacity:1"
       d="m 28.524257,55.768537 c -8.945706,3.97508 -7.621271,3.82639 -24.0637637,12.37924"
       id="path80"
       sodipodi:nodetypes="cc"
       inkscape:label="Straight 3" /><path
       style="opacity:1;fill:none;fill-opacity:1;fill-rule:nonzero;stroke:#ffffff;stroke-width:1.32292;stroke-linecap:round;stroke-dasharray:none;stroke-opacity:1"
       d="m -0.86759961,38.985801 c -0.62730109,5.645716 7.35039691,3.690866 7.55625391,4.410726 2.741453,8.22438 16.2322377,1.4282 16.8072597,0.56568 -2.040467,3.1152 -0.206642,12.14251 3.55538,12.14251 -0.177268,5.05854 1.673605,8.59511 5.28407,11.67901"
       id="path81"
       inkscape:label="Curves 1"
       sodipodi:nodetypes="csssc" /><path
       style="opacity:1;fill:none;fill-opacity:1;fill-rule:nonzero;stroke:#ffffff;stroke-width:1.32292;stroke-linecap:round;stroke-dasharray:none;stroke-opacity:1"
       d="m -0.31841461,49.275797 c 0.607187,2.3947 2.80920391,2.16043 4.29323491,1.94152 2.261743,4.76142 7.2296967,3.74352 10.8340567,1.79267 -3.986051,5.50879 5.442124,6.66627 5.228712,6.92916 -2.299126,3.72913 -0.540755,5.58196 2.170008,7.55341"
       id="path82"
       inkscape:label="Curves 2"
       sodipodi:nodetypes="csssc" /><path
       style="opacity:1;fill:none;fill-opacity:1;fill-rule:nonzero;stroke:#ffffff;stroke-width:1.32292;stroke-linecap:round;stroke-dasharray:none;stroke-opacity:1"
       d="m -0.04495961,55.223427 c 0.168852,2.60594 2.59798091,0.28675 2.61148991,0.69731 -1.016691,6.98556 3.272274,3.00447 5.906616,3.25411 -3.164862,4.91039 3.7580597,5.94695 4.7478527,4.41287 -2.56583,2.95043 0.727953,5.26185 3.127566,4.85951"
       id="path83"
       inkscape:label="Curves 3"
       sodipodi:nodetypes="csssc" /><path
       style="opacity:1;fill:none;fill-opacity:1;fill-rule:nonzero;stroke:#ffffff;stroke-width:1.32292;stroke-linecap:round;stroke-dasharray:none;stroke-opacity:1"
       d="m 0.72459935,61.599207 c -1.41119196,3.1053 2.97820595,2.44249 2.96847295,2.51218 -0.692459,2.21633 0.964096,2.99034 2.770184,2.9116"
       id="path84"
       inkscape:label="Curves 4"
       sodipodi:nodetypes="csc" /></g><metadata
     id="metadata1"><rdf:RDF><cc:Work
         rdf:about=""><dc:title>PlasmaPuffs Halloween 2025</dc:title></cc:Work></rdf:RDF></metadata></svg>
